<svg width="23" height="20" viewBox="0 0 23 20" fill="none" xmlns="http://www.w3.org/2000/svg">
<path id="Vector" d="M21.5456 12.2879C21.4442 12.2931 21.2006 12.4057 21.0839 12.4502C20.64 12.6256 19.9855 12.7487 19.4832 12.8404C19.5897 12.2433 19.6455 11.1488 19.6506 10.7062C19.6633 9.67191 19.1635 9.93377 17.7226 7.99603C16.7789 6.72603 16.9083 6.94337 15.9088 6.94337C14.0594 6.94337 10.9416 6.42489 9.16077 6.11066C7.62598 4.41122 0.116918 -1.21608 1.08599 2.07808C2.47618 6.93289 3.15606 13.4269 3.11801 18.5331C3.11039 19.1249 3.8334 18.9888 4.27988 18.9861C4.96737 18.9809 4.60713 18.7217 5.02825 9.8683C5.08913 8.59306 4.95468 7.05858 5.73603 7.05858C6.6569 7.05858 9.48295 11.497 10.7438 17.1086C11.1522 18.9259 13.2121 19.0621 15.0564 19.0621C16.7586 19.0621 20.328 18.7688 20.7973 16.9437C20.8277 16.8415 21.9997 12.8456 21.9997 12.7382C21.9997 12.5 21.8171 12.2852 21.5456 12.2879ZM15.0564 18.5803C13.4988 18.5803 11.5403 18.5253 11.2004 17.0013C10.5357 14.0423 8.84113 9.19795 6.47425 6.90933C5.77408 6.23112 4.88111 6.66842 4.70353 7.57706C4.54371 8.39929 4.63758 8.51974 4.24944 18.5069H3.58732C3.63552 13.7621 3.04444 7.95675 1.87495 3.22763C1.48681 1.66696 1.37773 1.57008 1.55277 1.54913C1.89271 1.51509 2.30368 1.71672 2.55736 1.85026C8.75995 5.08942 9.91928 7.89914 10.8706 9.73999C11.6317 11.2142 12.3496 12.6073 13.2958 13.2174C14.8814 14.2334 20.1732 13.3877 21.5127 12.7959L20.3432 16.818C19.9677 18.3027 16.5075 18.5803 15.0564 18.5803ZM19.1838 10.701C19.1762 11.3347 19.0951 12.5261 18.9885 12.9242C17.6922 13.1284 14.6581 13.4872 13.5495 12.7723C12.101 11.8427 11.1344 8.70566 9.65799 6.68675C17.9966 8.15314 16.1244 6.63176 17.3548 8.28931C18.8541 10.3056 19.194 9.93377 19.1838 10.701Z" fill="black" stroke="black" stroke-width="0.5"/>
</svg>
