<svg width="177" height="178" viewBox="0 0 177 178" fill="none" xmlns="http://www.w3.org/2000/svg">
<path id="Vector" d="M176.812 98.8566C176.25 77.3139 159.928 56.737 133.146 43.8148C107.323 31.3534 47.2704 1.27949 46.6648 0.976807C46.6393 0.965636 46.6081 0.967189 46.5826 0.956019C46.5251 0.930887 46.4722 0.903969 46.4101 0.88062C46.3846 0.869449 46.3646 0.845559 46.3391 0.834388C46.1893 0.776523 46.0371 0.793444 45.8807 0.759242C45.8761 0.761025 45.8679 0.753657 45.8633 0.75544C45.6722 0.713636 45.4887 0.637232 45.301 0.631038C45.2414 0.627783 45.1827 0.640043 45.1231 0.636789C44.9435 0.637962 44.7772 0.686693 44.5991 0.718902C44.3963 0.755454 44.1983 0.763766 44.0079 0.832358C43.9804 0.843068 43.9566 0.836475 43.929 0.847182C43.9014 0.857889 43.881 0.886907 43.8534 0.897614C43.6878 0.961862 43.5547 1.08204 43.3999 1.17375C43.2303 1.28175 43.0517 1.36687 42.8992 1.50513C42.8558 1.54307 42.806 1.57821 42.7643 1.62073C42.6394 1.74828 42.5618 1.91547 42.455 2.06234C42.4476 2.07048 42.4448 2.07684 42.4374 2.08499C42.3454 2.21556 42.219 2.31208 42.1388 2.45918C42.1276 2.48462 42.1291 2.51565 42.1179 2.5411C42.0926 2.59836 42.0655 2.65103 42.042 2.71287C42.0308 2.73831 42.0068 2.75818 41.9955 2.78363C41.755 3.41468 17.939 66.0366 7.38295 92.6162C-3.56277 120.19 -1.62062 146.348 12.5926 162.587C13.4755 163.6 14.4624 164.471 15.4214 165.38C15.5952 165.608 15.7968 165.798 16.026 165.978C27.3399 176.332 43.3104 179.928 60.6901 175.709C65.5716 174.526 69.8728 173.173 73.662 171.702C88.9982 165.751 95.9986 157.863 99.1431 151.329L107.325 172.26C108 173.985 109.948 174.837 111.682 174.164C113.416 173.492 114.272 171.551 113.598 169.826L105.417 148.899C112.172 151.586 122.683 152.678 138.014 146.728C141.808 145.256 145.895 143.354 150.288 140.937C165.963 132.329 175.28 118.919 176.581 103.659C176.625 103.378 176.646 103.107 176.621 102.826C176.709 101.506 176.844 100.199 176.807 98.8584L176.812 98.8566ZM169.959 98.0051L68.1179 53.4844L51.4633 10.8806C68.6227 19.456 109.902 40.0519 130.203 49.8488C154.239 61.4489 168.963 79.388 169.959 98.0051ZM13.653 95.0801C21.955 74.1829 38.378 31.1935 45.1954 13.3131L61.8501 55.9169L17.0618 157.342C5.15751 142.958 3.82272 119.818 13.653 95.0801ZM22.1641 162.442L65.3034 64.7507L83.3716 110.97L57.5336 169.49C43.8655 172.407 31.3604 169.885 22.1659 162.446L22.1641 162.442ZM65.835 167.328L86.8213 119.795L94.8892 140.433C95.0728 142.813 95.0408 158.176 65.835 167.328ZM101.164 137.993L93.0983 117.359L140.836 138.232C113.034 151.246 102.612 139.84 101.164 137.993ZM148.409 134.218L89.6468 108.53L71.5804 62.3147L169.674 105.201C167.956 116.874 160.453 127.161 148.41 134.223L148.409 134.218Z" fill="url(#paint0_linear_903_1025)"/>
<defs>
<linearGradient id="paint0_linear_903_1025" x1="-6.831" y1="120.352" x2="162.279" y2="54.2434" gradientUnits="userSpaceOnUse">
<stop stop-color="#F0BE3F"/>
<stop offset="0.27" stop-color="#FFEE91"/>
<stop offset="0.29" stop-color="#FFEE91"/>
<stop offset="0.41" stop-color="#EFB841"/>
<stop offset="0.44" stop-color="#EFB841"/>
<stop offset="0.62" stop-color="#A06101"/>
<stop offset="0.77" stop-color="#EFA545"/>
<stop offset="1" stop-color="#F0BE3F"/>
</linearGradient>
</defs>
</svg>
