<svg width="271" height="86" viewBox="0 0 271 86" fill="none" xmlns="http://www.w3.org/2000/svg">
<g clip-path="url(#clip0_903_918)">
<mask id="mask0_903_918" style="mask-type:luminance" maskUnits="userSpaceOnUse" x="212" y="27" width="60" height="58">
<path d="M212.949 44.7418V66.9553C212.949 67.6531 214.16 68.5975 214.914 69.353C215.694 70.1347 216.396 70.8377 217.18 71.6194C218.703 73.1462 220.133 74.568 221.651 76.0947L229.489 83.8804C229.879 84.2739 230.155 84.7933 230.861 84.7933H253.135C253.946 84.7933 255.042 83.3978 255.598 82.8206L270.075 68.4348C270.444 68.0676 271.01 67.7476 271.01 67.076V44.8625C271.01 44.1857 270.511 43.9181 270.142 43.5509L262.47 35.8386C261.077 34.4378 259.601 33.0212 258.036 31.4473C257.272 30.6813 256.602 30.0045 255.832 29.2385C255.448 28.8503 255.141 28.546 254.762 28.163C253.878 27.2763 254.127 27.2344 252.776 27.2344H230.622C229.884 27.2344 228.99 28.3938 228.211 29.1651L213.828 43.404C213.407 43.8184 212.955 44.0231 212.955 44.7418M236.08 29.3015C236.111 29.2805 236.153 29.2648 236.179 29.2543C236.205 29.2438 236.247 29.2228 236.278 29.2123C237.057 28.971 235.701 29.2962 236.491 29.1546L247.999 29.1703C247.474 29.8524 246.071 30.2721 245.125 30.6236C244.657 30.7967 242.105 31.8775 242.099 31.8775C241.897 31.8932 236.382 29.7212 236.08 29.3015ZM230.861 29.3907L239.344 32.8638C239.085 33.0999 228.195 37.6748 227.311 37.8532L230.861 29.3907ZM244.62 32.8638C245.088 32.5333 252.443 29.5691 253.031 29.5113C253.285 30.1567 253.717 30.8334 254.065 31.5837L256.7 37.8637C255.91 37.7483 247.464 34.1282 245.229 33.2258C245.229 33.2258 244.906 33.0842 244.896 33.0789C244.501 32.8533 244.756 33.0107 244.626 32.8691L244.62 32.8638ZM218.444 41.51C218.761 41.127 219.114 40.8332 219.494 40.4764L224.936 35.188C225.414 34.7368 226.646 33.4514 227.166 33.1681C226.963 33.9971 226.266 35.4136 225.892 36.253C225.518 37.0977 225.076 38.5562 224.385 39.0284C223.948 39.3275 218.901 41.4365 218.444 41.5048V41.51ZM264.159 40.9644C263.328 40.7598 262.205 40.1879 261.399 39.8679C260.11 39.3485 259.346 39.233 259.045 38.5195L256.877 33.3832C257.563 33.9603 263.905 40.5027 264.159 40.9696V40.9644ZM227.732 39.8731C228.127 39.4796 240.363 34.506 240.909 34.4168C241.039 35.7914 241.315 39.9098 240.816 40.9539C240.467 41.2424 232.785 44.3693 231.937 44.6002L227.727 39.8731H227.732ZM242.999 34.443C243.524 34.506 256.056 39.6423 256.326 39.8731C256.077 40.2718 252.334 44.2382 251.939 44.5162C251.362 44.4008 243.279 41.1637 242.988 40.9434L242.999 34.443ZM215.179 44.9832C215.486 44.7418 223.143 41.5992 223.652 41.5257L221.209 47.5119C220.393 49.4636 219.618 51.515 218.75 53.3932C218.516 53.0994 215.314 45.5813 215.179 44.9832ZM266.358 50.8487C266.202 51.2002 266.067 51.494 265.922 51.8455L265.527 52.6587C265.527 52.6587 265.49 52.7059 265.469 52.7322C264.326 51.6514 261.16 44.3116 261.264 42.0084C263.442 42.3127 266.493 44.2382 268.583 44.873C268.515 46.1951 266.982 49.4322 266.358 50.8539V50.8487ZM220.211 55.0669C220.299 54.4058 221.24 52.4174 221.547 51.6567C222.815 48.5455 224.629 44.5215 225.684 41.6359C226.027 41.7828 230.061 45.534 230.378 45.9275C230.191 47.2024 229.193 49.3902 228.694 50.5444L226.854 54.9409C223.678 55.1351 223.293 55.0511 220.206 55.0669H220.211ZM257.205 54.9672C256.867 54.5475 255.827 51.877 255.531 51.153C254.98 49.7942 254.476 48.6032 253.914 47.2864C253.467 46.2476 253.374 46.2371 254.024 45.5078C255.022 44.3903 257.246 42.0032 258.208 41.4313L263.952 54.9882L257.205 54.9672ZM269.144 49.8624L269.155 61.5725C268.281 60.7593 266.369 55.8591 266.374 55.8171C266.389 55.5915 268.385 50.471 269.144 49.8624ZM214.94 61.966C214.717 61.5777 214.711 50.4919 214.94 50.0617C215.236 50.1667 215.029 50.025 215.226 50.2716L217.643 56.0007C217.627 56.2316 216.609 58.5453 216.406 59.0279L215.47 61.2944C215.47 61.2944 215.294 61.7036 215.288 61.7141C215.117 61.9555 215.262 61.8873 214.94 61.966ZM255.333 56.3837L252.376 63.4717C251.191 66.3048 252.246 65.1768 246.455 67.5639C245.691 67.8787 244.901 68.2145 244.085 68.545C243.331 68.8493 242.349 69.5209 241.528 69.2166L234.406 66.2995C233.98 66.1264 233.59 65.9638 233.221 65.8221C232.686 65.6122 232.488 65.649 232.249 65.1033L229.302 58.0468C228.122 55.1823 228.283 56.4729 230.591 50.8802L232.062 47.3493C232.317 46.746 232.229 46.6201 232.754 46.3735C234.23 45.6809 235.94 45.0514 237.494 44.4165C238.346 44.065 241.637 42.4858 242.344 42.7219C243.83 43.2256 245.582 44.0808 247.079 44.6841C252.896 47.0135 251.045 45.5655 253.613 51.5045C253.972 52.3387 254.273 53.0627 254.611 53.8392C254.907 54.5212 255.624 55.7279 255.339 56.3785L255.333 56.3837ZM258.275 70.2763C257.891 70.119 255.027 67.0288 254.367 66.3258C253.68 65.6017 253.618 65.7382 254.018 64.4948C254.45 63.1622 254.954 62.0447 255.526 60.7645C255.801 60.1454 256.051 59.5946 256.316 58.944C256.529 58.4351 256.877 57.3963 257.121 57.029L263.712 57.0395L258.275 70.2659V70.2763ZM220.252 57.0343L226.765 57.0238C227.238 57.774 229.541 63.435 229.936 64.5525C230.207 65.3132 230.57 65.8326 230.045 66.373L225.721 70.2816C225.232 69.4632 220.247 57.2651 220.252 57.0395V57.0343ZM260.469 70.0245C260.64 69.3162 265.111 58.6817 265.35 58.3774L265.812 59.2483C265.958 59.6208 266.067 59.8726 266.233 60.2556C266.748 61.4518 268.583 65.5965 268.713 66.2576C267.382 66.9763 266.254 67.5429 264.7 68.1988C263.946 68.5188 263.307 68.7759 262.59 69.0802C262.065 69.3058 261.02 69.8881 260.469 70.0193V70.0245ZM218.376 59.0961L218.537 58.6449L218.859 58.8915C218.885 59.2273 223.382 69.1379 223.699 70.5439C222.867 70.3446 215.668 67.3016 215.252 66.9501L218.371 59.0961H218.376ZM266.379 69.694C265.786 70.4495 264.814 71.3099 264.024 72.0497L258.104 78.0569C257.756 78.4136 257.283 79.1166 256.758 79.1429C256.726 78.613 257.771 76.3622 258.031 75.7274C259.616 71.8713 258.92 72.7632 262.86 71.0109C263.967 70.5177 265.126 70.0612 266.192 69.5576C266.369 69.4159 265.968 69.4002 266.68 69.353C266.577 69.6887 266.66 69.5261 266.384 69.6887L266.379 69.694ZM219.483 70.8902C220.33 71.142 221.375 71.6404 222.196 71.9814C222.872 72.2595 224.567 72.8156 224.847 73.2721C225.144 73.7548 227.005 78.1933 227.098 78.6497C226.859 78.3507 226.516 78.0988 226.178 77.7788L219.483 70.8954V70.8902ZM243.025 77.3486L243.014 71.0476C243.763 70.6069 249.132 68.524 250.453 67.9732C251.898 67.3698 251.601 67.0393 253.634 68.949C254.049 69.3425 256.087 71.3414 256.264 71.6981L249.694 74.5784C248.81 74.9562 243.44 77.3276 243.025 77.3486ZM227.535 72.0549L231.823 67.5167C232.915 67.6216 235.456 68.7234 236.444 69.1326C237.936 69.7517 239.324 70.2868 240.852 70.9374L240.888 77.506C240.322 77.4588 227.727 72.2648 227.535 72.0602V72.0549ZM256.69 73.9541C256.617 74.4211 253.317 82.317 253.02 82.5741C251.903 82.1176 244.953 79.4104 244.511 79.0642C245.197 78.3716 254.793 74.3948 256.42 73.7128C256.7 73.5029 256.071 73.6498 256.674 73.5344C257.22 73.4295 256.768 73.4767 256.955 73.6341L256.695 73.9594L256.69 73.9541ZM227.28 74.0905C228.07 74.2689 238.934 78.7914 239.225 79.0432C237.951 79.6518 236.558 80.1869 235.212 80.764C233.954 81.2992 232.369 82.0494 231.106 82.4639C230.347 81.8291 228.751 77.5794 228.195 76.2468C227.956 75.6697 227.379 74.5785 227.28 74.0853V74.0905ZM236.007 82.7472C236.122 82.2488 236.345 82.3642 237.338 81.9235C237.868 81.6874 238.289 81.5143 238.835 81.2729C239.391 81.0264 241.455 79.998 241.917 80.0977L246.512 81.9602C246.892 82.1124 247.812 82.3012 247.937 82.7524C247.594 82.9833 236.392 82.978 236.007 82.7524V82.7472Z" fill="white"/>
</mask>
<g mask="url(#mask0_903_918)">
<path d="M271 27.2344H212.949V84.7881H271V27.2344Z" fill="url(#paint0_linear_903_918)"/>
</g>
<path d="M50.4356 59.1539C50.6227 58.965 50.8047 58.7341 50.9918 58.4508C51.1789 58.1675 51.3349 57.9367 51.4544 57.7478H51.3609C51.4856 57.433 51.6883 57.155 51.9638 56.9031C52.2445 56.6513 52.4732 56.3732 52.6603 56.0584L54.6096 53.4352V53.2463C54.6096 53.1834 54.6252 53.1519 54.6563 53.1519C54.6875 53.1519 54.7031 53.1204 54.7031 53.0575L55.9091 51.09L59.1578 46.2161V46.3105C59.1578 46.1846 59.2825 46.0587 59.5268 45.938C59.5892 45.8121 59.6204 45.7177 59.6204 45.6547L60.2701 44.532L60.6392 44.065L60.4521 44.1595C60.7639 43.724 61.0394 43.299 61.2889 42.8951C61.5384 42.4911 61.7515 42.0346 61.9387 41.5362L63.5188 39.0074L64.7248 37.2236L65.0055 36.7567C65.0678 36.5678 65.1614 36.3947 65.2861 36.2426C65.4109 36.0852 65.5045 35.912 65.5668 35.7284L66.2166 34.6949L63.1498 37.7903L62.7807 38.0736L59.1578 41.3526L58.8771 41.6359C58.8147 41.6989 58.7523 41.7933 58.69 41.9192L57.666 42.8583L51.2569 49.8886L49.4012 51.7616L48.3772 53.0732L46.9842 54.8518L45.404 56.6356L45.035 57.0081L43.9226 58.6974L43.0857 59.9146C42.961 60.1664 42.8206 60.3658 42.6699 60.5232C42.514 60.6806 42.3424 60.8799 42.1605 61.1318L40.4868 63.755C40.4244 63.818 40.3308 63.9124 40.2061 64.0383C40.0813 64.1642 39.9566 64.2901 39.837 64.4108L39.1873 65.7224L39.2808 65.628L38.9118 66.1894C38.5999 66.5042 38.3712 66.798 38.2153 67.0813C38.0593 67.3646 37.919 67.6269 37.7994 67.8787C37.3056 68.7549 36.7754 69.7202 36.2192 70.7853C35.6631 71.845 35.1952 72.8156 34.8262 73.6918C34.5143 74.1902 34.2856 74.5837 34.1297 74.8618C33.9737 75.1451 33.8334 75.5333 33.7138 76.0317C33.7138 76.0947 33.6826 76.1891 33.6203 76.315C33.5579 76.4409 33.5267 76.5354 33.5267 76.5983L32.7834 78.3821C32.7834 78.508 32.7522 78.6025 32.6898 78.6654C32.6275 78.7284 32.5963 78.8228 32.5963 78.9488C32.5963 79.3842 32.5651 79.6675 32.5027 79.7934L32.8718 79.699V79.3265L33.9841 78.2038C34.296 78.0778 34.7898 77.6109 35.4707 76.7977H35.5643C35.5019 76.7977 35.5955 76.7347 35.845 76.6088L36.3076 76.1419L37.1445 75.1083L38.7247 73.419L42.0669 69.5733L42.9038 68.3561L43.46 67.9837L44.0162 67.4223L46.2461 64.5157C46.1837 64.5787 46.2149 64.5472 46.3396 64.4213C46.4644 64.2954 46.6047 64.138 46.7555 63.9544C46.9114 63.7655 47.0829 63.5661 47.2649 63.3458C47.452 63.1254 47.6079 62.9261 47.7275 62.7372L48.9334 61.2367C48.9958 61.1108 49.1205 60.9219 49.3025 60.6753C49.4896 60.4235 49.6455 60.2399 49.7651 60.114C49.8898 60.051 50.0146 59.9251 50.1341 59.7415C50.2589 59.5526 50.3525 59.3952 50.4148 59.2745V59.1801L50.4356 59.1539ZM65.2965 0C65.4213 0 65.546 0.0157394 65.6656 0.0472182C65.7903 0.0786969 65.9463 0.0944363 66.1282 0.0944363H67.2406L69.6576 0.84468L71.0507 1.68936L71.9811 2.06186L73.0935 3.37347L74.1174 4.40703C74.1174 4.5959 74.1798 4.75329 74.3046 4.87396L74.4917 5.62421V5.52977C74.7412 5.7816 74.8608 6.18558 74.8608 6.74695C74.9855 7.11945 75.0791 7.60737 75.1414 8.20022C75.2038 8.79307 75.2662 9.3387 75.3286 9.84236V12.1403C75.3286 12.4236 75.2974 12.6859 75.235 12.9378C75.235 13.2526 75.2038 13.5936 75.1414 13.9713C75.0791 14.3438 75.0167 14.6271 74.9543 14.816C74.9543 15.0049 74.9387 15.2515 74.9075 15.5663C74.8764 15.881 74.8608 16.0961 74.8608 16.2221L74.4917 17.817C74.4917 18.0059 74.4605 18.2052 74.3981 18.4256C74.3358 18.6459 74.3046 18.8768 74.3046 19.1286C74.0551 20.1307 73.7952 21.1275 73.5145 22.1296C73.2338 23.1316 72.9427 24.1285 72.6308 25.1306C72.5685 25.4453 72.4905 25.7549 72.3969 26.0697C72.3034 26.3845 72.163 26.694 71.9811 27.0088L72.6308 26.353C74.4865 24.9154 76.2694 23.6511 77.9691 22.5545C79.6741 21.4633 81.327 20.4769 82.9384 19.6008V19.6952C83.8688 19.0079 84.7628 18.4308 85.6309 17.9586C86.499 17.4917 87.367 17.0353 88.2299 16.5998C89.0979 16.2273 89.966 15.8496 90.8288 15.4771C91.6969 15.1046 92.6221 14.7268 93.6149 14.3543H93.9424C94.0984 14.3543 94.2387 14.3228 94.3582 14.2599C94.4206 14.2599 94.7013 14.1969 95.1951 14.071H95.8449C95.9696 14.0081 96.2451 13.9766 96.6817 13.9766H97.2379C97.5498 13.9766 97.7941 14.0081 97.9812 14.071L99.0052 14.7268C99.0676 14.9157 99.1456 15.1308 99.2391 15.3826C99.3327 15.6345 99.4106 15.9125 99.473 16.2273C99.6601 16.5998 99.7537 17.1349 99.7537 17.8222C99.7537 18.137 99.7381 18.5567 99.7069 19.0866C99.6758 19.6165 99.5978 20.1044 99.473 20.5399C99.2859 21.6049 99.0884 22.6018 98.8701 23.5409C98.6517 24.48 98.2983 25.4139 97.8045 26.353L97.2483 27.4757L96.3179 29.0706L96.4114 28.9762L95.481 30.8492L95.1119 31.8827C93.9996 33.6928 92.882 35.3821 91.7697 36.9456L90.2831 39.1963L88.7029 41.5415L87.2163 43.8867L85.7297 46.2318L85.1735 46.8876H85.267C85.0799 47.2024 84.9552 47.3703 84.898 47.4018C84.8356 47.4333 84.7421 47.6064 84.6173 47.9159L83.1307 50.2611L81.0879 53.0732C81.3374 52.7584 81.5973 52.4961 81.878 52.2757C82.1587 52.0554 82.3874 51.856 82.5745 51.6672L85.7349 48.1048L89.914 43.8867L92.4194 41.5415L93.6253 40.4187L94.088 39.9518L98.1735 36.3895L99.0104 35.6392C99.3223 35.5133 99.7225 35.1723 100.216 34.6057L100.679 34.1387C101.36 33.7033 102.041 33.1996 102.722 32.6382C103.403 32.0769 104.084 31.484 104.765 30.8544C105.196 30.5397 105.586 30.2616 105.924 30.0098C106.267 29.7579 106.62 29.4799 106.989 29.1651C107.052 29.1651 107.114 29.1336 107.176 29.0706L107.733 28.6037L109.962 27.1032C109.838 27.1662 109.994 27.056 110.425 26.7727C110.857 26.4894 111.2 26.2585 111.449 26.0697L113.398 24.4747C114.017 24.16 114.479 23.8504 114.791 23.5356L118.877 21.096L119.807 20.6291L122.593 19.3175C122.656 19.3175 122.734 19.286 122.827 19.223C122.921 19.1601 122.999 19.1286 123.061 19.1286H123.155C123.217 19.1286 123.28 19.0971 123.342 19.0342C123.404 18.9712 123.56 18.8768 123.805 18.7509C123.867 18.7509 123.945 18.7351 124.039 18.7036C124.132 18.6722 124.21 18.6564 124.272 18.6564H124.366C124.366 18.6564 124.428 18.6249 124.553 18.562H125.296C125.421 18.562 125.577 18.5935 125.759 18.6564C125.821 18.7194 125.915 18.7509 126.04 18.7509C126.102 18.7509 126.196 18.7823 126.32 18.8453C126.445 18.9082 126.539 18.9397 126.601 18.9397L127.251 19.7844V20.7235L127.064 21.8463C127.064 21.9722 127.048 22.0981 127.017 22.2188C126.986 22.3447 126.97 22.4706 126.97 22.5913C126.908 22.9061 126.83 23.2156 126.736 23.5304C126.643 23.8452 126.534 24.1547 126.409 24.4695L125.296 26.9983L123.623 29.4379H123.716L122.692 31.0328L122.786 30.9384L121.855 32.9058L118.42 37.8742L117.026 40.1249L117.214 39.9361L116.657 40.7807C116.595 40.9067 116.517 41.0798 116.424 41.2949C116.33 41.5153 116.127 41.8405 115.821 42.2812L115.914 42.1868L115.358 43.0315C114.927 43.7188 114.537 44.4218 114.199 45.1406C113.856 45.8593 113.471 46.5309 113.04 47.1552V47.0608C112.915 47.1867 112.853 47.3126 112.853 47.4333L112.483 47.9946C111.99 48.619 111.584 49.3692 111.278 50.2454C110.784 51.1845 110.269 52.1183 109.744 53.0575C109.219 53.9966 108.767 54.9305 108.398 55.8696C107.779 57.0553 107.239 58.2305 106.771 59.3847C106.308 60.5389 105.825 61.7141 105.331 62.8998C104.837 63.9649 104.385 65.0876 103.985 66.2733C103.585 67.459 103.257 68.6499 103.008 69.8356C102.758 70.6488 102.561 71.5093 102.405 72.4117C102.249 73.3193 102.14 74.206 102.077 75.0821V77.6109C102.077 78.2352 102.171 78.954 102.358 79.7672L102.727 81.551C102.727 81.6769 102.758 81.7871 102.82 81.8815C102.883 81.976 102.945 82.0861 103.008 82.2121L103.47 82.9623C103.47 83.0253 103.517 83.104 103.611 83.1984C103.704 83.2928 103.782 83.466 103.844 83.7125C103.844 83.7755 103.938 83.9014 104.125 84.085C104.125 84.211 103.954 84.3841 103.616 84.5992C103.273 84.8195 103.075 84.9297 103.013 84.9297C102.581 84.9297 102.332 84.8038 102.27 84.5572L102.176 84.3683C102.176 84.4943 102.145 84.5257 102.082 84.4628C101.895 84.3998 101.739 84.3369 101.62 84.2739C101.495 84.211 101.37 84.0221 101.251 83.7125C101.188 83.6496 101.157 83.4922 101.157 83.2456L101.064 82.9623C101.001 82.8993 100.923 82.8049 100.83 82.679C100.736 82.5531 100.689 82.3957 100.689 82.2121C100.689 82.0861 100.596 81.8658 100.409 81.5562L100.222 80.3391C100.034 79.5259 99.9408 78.6812 99.9408 77.8103C99.9408 76.6875 99.972 75.5753 100.034 74.484C100.097 73.3928 100.19 72.3435 100.315 71.3414C100.565 70.2186 100.824 69.1064 101.105 68.0151C101.386 66.9239 101.646 65.9375 101.895 65.0614C102.207 64.1852 102.576 63.2199 103.008 62.1548C103.439 61.095 103.844 60.1245 104.214 59.2483L106.813 53.5296L107.462 52.1236C107.774 51.4363 108.096 50.7175 108.439 49.9673C108.783 49.2171 109.167 48.5298 109.599 47.9054L110.435 46.5938L110.342 46.6883C110.467 46.2528 110.711 45.8121 111.085 45.3766L112.759 42.5645C113.378 41.6884 113.83 40.9539 114.105 40.361C114.386 39.7682 114.677 39.1911 114.989 38.6245L115.545 37.7798C115.857 37.0925 116.32 36.3737 116.938 35.6235L117.681 34.5007H117.494C117.988 33.8764 118.44 33.2521 118.841 32.6277C119.241 32.0034 119.631 31.3476 120 30.6603L121.112 28.6929C121.543 27.9427 122.011 27.1767 122.505 26.3949C122.999 25.6132 123.467 24.7843 123.898 23.9081L124.548 22.5021C124.797 21.8777 124.917 21.5 124.917 21.3793V21.2849H124.267C124.142 21.2849 123.987 21.3164 123.805 21.3793L123.898 21.2849L123.529 21.5682L122.973 22.0351L121.117 22.9743L119.631 23.9134C118.95 24.2282 118.238 24.6007 117.494 25.0361C116.751 25.4716 115.914 26.0382 114.989 26.7255C114.864 26.7255 114.771 26.7727 114.708 26.8671C114.646 26.9616 114.615 26.9458 114.615 26.8199L112.478 28.4148V28.3204L108.299 31.1325L107.837 31.6939C107.649 31.8827 107.467 32.0244 107.28 32.1136C107.093 32.208 106.911 32.3182 106.724 32.4441L105.887 33.2888L103.657 34.9782L101.615 36.4786C101.246 36.7305 100.902 37.0085 100.591 37.3233C100.279 37.6381 99.972 37.9477 99.6601 38.2624C99.3483 38.6349 98.9948 38.9655 98.5946 39.2488C98.1943 39.5321 97.8045 39.8574 97.4354 40.2351C97.0664 40.6076 96.6765 40.9381 96.2763 41.2214C95.876 41.5048 95.5174 41.83 95.2107 42.2078L94.4674 42.8636C94.2803 43.0525 94.0048 43.3305 93.6305 43.7083C93.2615 44.0808 93.1367 44.2067 93.2615 44.0808L89.363 47.7376L88.4326 48.6767L87.5022 49.5214L86.6653 50.2716L80.9995 56.5516L77.8392 60.114L77.0959 61.0531L75.6093 62.7424L74.7724 63.776C73.842 64.7151 73.0051 65.7434 72.267 66.8714L71.4301 67.7161L69.6628 70.0612L69.0131 71.184L68.7324 71.5565L67.7084 72.7737L67.5213 73.057C67.5213 73.1199 67.4745 73.2459 67.3809 73.4295C67.2874 73.6184 67.2406 73.7443 67.2406 73.802L66.4037 75.3025L65.0107 77.1755C64.9483 77.2384 64.9171 77.3328 64.9171 77.4588V77.6476L64.548 78.3979C64.4857 78.3979 64.4233 78.4294 64.3609 78.4923C64.2362 78.6182 64.1426 78.7441 64.0802 78.8648L63.8931 79.0537C63.7683 79.1796 63.6748 79.2426 63.6124 79.2426C63.2434 79.2426 63.025 79.1166 62.9627 78.8701C62.8379 78.6182 62.7444 78.4031 62.682 78.2142C62.6196 78.0254 62.6196 77.7158 62.682 77.2751C62.682 77.0233 62.8067 76.8082 63.051 76.6193L63.7943 75.3077L63.7008 75.4021L64.5376 73.8072C64.7248 73.4924 64.8807 73.2144 65.0003 72.9625C65.125 72.7107 65.3693 72.3382 65.7436 71.8398C66.175 71.4043 66.4557 71.0581 66.5804 70.8063L66.9495 70.2449C67.0742 70.119 67.1834 69.9458 67.277 69.7307C67.3705 69.5104 67.4797 69.3425 67.6044 69.2166L68.3477 67.9994L68.1606 68.0938C68.3477 67.779 68.6076 67.3278 68.9507 66.735C69.2938 66.1421 69.7096 65.565 70.2034 64.9984L72.5269 61.8086L75.2194 57.5904H75.0323L76.3318 55.7174L77.9119 53.6556H77.8184C78.2498 52.9683 78.6864 52.3282 79.1179 51.7354C79.5493 51.1425 80.0171 50.5339 80.5109 49.9096L83.297 46.0639L84.5965 44.0965L87.6633 39.2225C87.9752 38.9078 88.2351 38.5825 88.4534 38.2362C88.6717 37.8899 88.9004 37.5647 89.1499 37.2499L90.1739 35.655C90.361 35.2825 90.6053 34.8732 90.9172 34.4378C91.2291 34.0023 91.4734 33.6246 91.6605 33.315L93.3343 30.3141C93.5214 29.9416 93.7345 29.5638 93.984 29.1913C94.2335 28.8188 94.4154 28.4411 94.5402 28.0686C94.5402 28.0056 94.587 27.9112 94.6805 27.7853C94.7741 27.6593 94.8209 27.5649 94.8209 27.502C95.008 27.1872 95.2211 26.7832 95.4706 26.2848C95.7201 25.7864 95.902 25.3771 96.0268 25.0676C96.0268 25.0046 96.0736 24.9102 96.1671 24.7843C96.2607 24.6584 96.3075 24.5639 96.3075 24.501L97.0508 22.8116C97.0508 22.6857 97.0664 22.607 97.0976 22.5755C97.1288 22.544 97.1443 22.4968 97.1443 22.4339C97.2691 22.0614 97.3939 21.7308 97.5134 21.4475C97.6382 21.1642 97.7317 20.9019 97.7941 20.6501C97.7941 20.5871 97.8097 20.5084 97.8409 20.414C97.8721 20.3195 97.8877 20.2094 97.8877 20.0835L98.1683 18.9607V17.9272C98.0436 17.8642 97.9812 17.7068 97.9812 17.4602C97.9812 17.3343 98.0124 17.2871 98.0748 17.3186C98.1371 17.35 98.106 17.3028 97.9812 17.1769C97.9188 17.1769 97.8097 17.1454 97.6537 17.0825C97.4978 17.0195 97.3886 16.9251 97.3263 16.7992H96.3023C95.9332 16.988 95.4342 17.0825 94.8157 17.0825C94.6909 17.0825 94.5974 17.0982 94.535 17.1297C94.4726 17.1612 94.4102 17.1769 94.3478 17.1769L92.2115 17.8327C91.3434 18.1475 90.4598 18.5043 89.5657 18.9082C88.6665 19.3122 87.7569 19.7687 86.8264 20.2671L85.3398 21.0173H85.5269L82.0911 23.0792C80.355 24.1442 78.6085 25.2827 76.8412 26.4999C75.0739 27.7171 73.6392 28.7978 72.5217 29.7317L71.4977 30.5764L70.1982 31.6991L67.8747 36.6675C67.6876 36.9823 67.5057 37.3233 67.3185 37.7011C67.1314 38.0736 66.8871 38.5143 66.5752 39.0127L66.7624 38.8238L66.2062 39.5741C66.0814 39.8259 66.0191 39.9466 66.0191 39.9466C65.8319 40.1354 65.65 40.4292 65.4629 40.8385C65.2757 41.2424 65.0938 41.6674 64.9067 42.1029L63.7008 43.8814V43.787L61.9335 46.8824C61.9335 47.0083 61.9179 47.1027 61.8867 47.1657C61.8555 47.2286 61.8399 47.2916 61.8399 47.3546C61.6528 47.5434 61.5592 47.6693 61.5592 47.7271C61.3097 47.9789 61.1434 48.1625 61.0498 48.2884C60.9563 48.4143 60.8471 48.5717 60.7224 48.7554L60.3533 49.2223C60.2285 49.4112 60.1038 49.642 59.9842 49.9253C59.8595 50.2086 59.7347 50.408 59.6152 50.5339H59.7088L57.5724 53.813C57.0786 54.2484 56.7043 54.7836 56.46 55.4079L55.9039 55.9693C55.8415 56.0322 55.8103 56.1581 55.8103 56.3418L54.9734 57.1864L52.468 60.9377L51.1685 62.9051L50.7059 63.4664C50.2121 63.9019 49.8379 64.4056 49.5936 64.9669C49.2245 65.4024 48.8347 65.8116 48.4344 66.1841C48.0342 66.5566 47.6755 66.9658 47.3688 67.4013L47.4624 67.3069L45.7887 69.5576L45.8822 69.4632C45.8198 69.5891 45.7107 69.7307 45.5547 69.8829C45.3988 70.0403 45.2585 70.1819 45.1389 70.3026L41.7031 74.2374L40.4036 75.7379C40.0345 76.2363 39.6915 76.5196 39.3796 76.5826L36.3128 79.7725L35.2004 80.7116L34.6443 81.0841L33.2512 82.2068H32.5079L32.0453 82.3012C31.9829 82.3012 31.9049 82.317 31.8114 82.3485C31.7178 82.3799 31.5775 82.3957 31.3956 82.3957L30.8394 81.8343C30.6522 81.6454 30.5587 81.4303 30.5587 81.1785C30.5587 81.0526 30.5431 80.9739 30.5119 80.9424C30.4807 80.9109 30.4651 80.8322 30.4651 80.7063V80.3758C30.4651 80.2184 30.4963 80.0767 30.5587 79.9561C30.5587 79.7042 30.5743 79.4262 30.6055 79.1114C30.6367 78.7966 30.7146 78.55 30.8394 78.3612L31.2084 77.144L31.671 75.7379L32.4143 73.8649L33.9945 70.2082L37.1549 64.6784L38.0853 63.4612L37.8982 63.5556C38.0229 63.4297 38.1789 63.2251 38.3608 62.947C38.5479 62.6637 38.761 62.4014 39.0105 62.1496C39.0105 62.0237 39.0417 61.9292 39.1041 61.8663C39.1041 61.8033 39.1353 61.7718 39.1977 61.7718C39.26 61.6459 39.2912 61.5515 39.2912 61.4885L41.5211 58.2987L42.4516 57.0815L44.0318 54.8308C44.0318 54.7049 44.0629 54.6104 44.1253 54.5475C44.1877 54.4845 44.2501 54.453 44.3124 54.453V54.1697L47.7483 50.3241L48.1173 49.8571L49.6975 47.8897L50.4408 47.2339C51.5532 45.9852 52.6551 44.7943 53.7363 43.6715C54.8175 42.5488 55.9818 41.3579 57.2189 40.1092C57.2813 39.9833 57.3749 39.8259 57.4996 39.6423C57.6244 39.4534 57.7491 39.296 57.8687 39.1753H58.0558L58.4249 38.7084L60.4677 36.9298L62.604 35.2405C63.0978 34.6162 63.6852 34.0076 64.3713 33.4147C65.0522 32.8219 65.7332 32.2448 66.4141 31.6781L68.0878 30.1776V29.9888C68.0878 29.7999 68.1814 29.6163 68.3685 29.4274C68.5556 29.0549 68.7532 28.5512 68.9715 27.9269C69.1898 27.3026 69.3561 26.8357 69.4809 26.5209C69.4809 26.4579 69.4965 26.3635 69.5277 26.2376C69.5589 26.1116 69.5745 26.0172 69.5745 25.9542C70.0683 24.8945 70.4893 23.8137 70.8271 22.7224C71.1702 21.6312 71.4925 20.5504 71.8044 19.4906C71.9915 18.8033 72.1318 18.1633 72.2202 17.5704C72.3138 16.9776 72.4229 16.3375 72.5477 15.6502C72.6101 15.0259 72.688 14.4488 72.7816 13.9136C72.8751 13.3837 72.9219 12.8643 72.9219 12.3659C72.9843 12.0511 73.0155 11.7731 73.0155 11.5212V10.771C73.0155 10.3355 72.9843 9.98926 72.9219 9.73743C72.9219 9.36493 72.8907 9.01867 72.8284 8.70388C72.766 8.38909 72.7036 8.07955 72.6412 7.76476C72.5789 7.44998 72.5321 7.20339 72.5009 7.01452C72.4697 6.82565 72.3917 6.66825 72.267 6.54758L71.6172 5.60847C71.3677 5.41959 71.139 5.23597 70.9207 5.0471C70.7024 4.85822 70.4113 4.6746 70.0371 4.48572L69.2002 4.01879L68.3633 3.55185C67.4329 3.23707 66.3517 3.08492 65.1146 3.08492C65.0522 3.08492 64.9899 3.05344 64.9275 2.99048C64.8651 2.92753 64.7716 2.89605 64.6468 2.89605C64.2777 2.89605 63.9971 2.959 63.8099 3.08492C63.6852 3.08492 63.576 3.10066 63.4825 3.13214C63.3889 3.16362 63.2486 3.17936 63.0666 3.17936C62.5728 3.24231 62.0894 3.33675 61.6268 3.46266C61.1642 3.58858 60.6496 3.71449 60.0934 3.83516C59.163 4.02404 58.2377 4.3021 57.3073 4.67984L55.9143 5.05234L55.0774 5.24122H55.2645C51.7351 6.48987 48.0809 8.0848 44.3072 10.0207C42.7583 10.8969 41.1937 11.8308 39.6187 12.8328C38.0385 13.8349 36.292 14.9891 34.3688 16.3008C32.695 17.4235 31.0733 18.5515 29.4931 19.6742C27.9129 20.797 26.3795 21.9879 24.8981 23.2366C23.4739 24.5482 21.9561 25.9385 20.3447 27.4075C18.7334 28.8765 17.3091 30.3298 16.072 31.7673C15.0168 32.8901 13.9045 34.1282 12.7297 35.4713C11.555 36.8144 10.531 38.1103 9.66295 39.3642L9.0132 40.3033L7.33947 42.7429C6.10236 44.4952 5.14074 46.2108 4.4598 47.9002C3.467 49.8361 2.6925 51.8088 2.13632 53.8077C2.13632 53.9966 2.10514 54.2117 2.04276 54.4635C1.98039 54.7153 1.9492 54.899 1.9492 55.0249C1.9492 55.2138 1.90242 55.4446 1.80885 55.7279C1.71529 56.0112 1.66851 56.2735 1.66851 56.5254V58.4928C1.79326 58.6817 1.85563 58.9912 1.85563 59.4319C1.85563 59.5578 1.87123 59.6995 1.90242 59.8516C1.9336 60.009 1.9492 60.1507 1.9492 60.2714L2.13632 60.9272V60.7383L2.50538 61.4885C2.63013 61.9869 2.96799 62.4591 3.52937 62.8946C3.7165 63.2094 4.02318 63.4717 4.4598 63.692C4.89123 63.9124 5.29667 64.0803 5.66573 64.2062C5.91523 64.3321 6.20631 64.4108 6.54938 64.4423C6.89244 64.4738 7.12115 64.4895 7.2459 64.4895C7.92683 64.4895 8.59217 64.4108 9.24191 64.2534C9.89166 64.096 10.4946 63.9544 11.0508 63.8337C11.7941 63.5189 12.6154 63.1464 13.5146 62.711C14.4139 62.2755 15.2351 61.8348 15.9784 61.3993V61.4938C17.5274 60.4287 19.0764 59.243 20.6202 57.9314C22.0444 56.6828 23.4375 55.3869 24.7994 54.0386C26.1612 52.6955 27.4607 51.3366 28.6978 49.9621C29.753 48.96 30.725 47.9159 31.6243 46.8194C32.5235 45.7282 33.402 44.553 34.27 43.3043C34.5819 42.9895 34.9042 42.5698 35.2472 42.0399C35.5903 41.51 36.0373 40.744 36.5935 39.7419V39.8364L37.4304 38.3359L38.5427 36.274C38.6051 36.0852 38.6987 35.9015 38.8234 35.7127C38.9482 35.5238 39.0105 35.2772 39.0105 34.9624L39.7538 33.3675L40.0345 31.4001V30.8387C40.0345 30.7128 40.0033 30.6184 39.941 30.5554C39.8786 30.4924 39.8474 30.398 39.8474 30.2721V29.8996L39.6603 29.5271V29.4326H39.5667C39.442 29.4326 39.3484 29.4012 39.286 29.3382C39.0989 29.3382 39.0053 29.2753 39.0053 29.1493C38.943 29.1493 38.865 29.1336 38.7714 29.1021C38.6779 29.0706 38.5375 29.0549 38.3556 29.0549C38.2932 29.0549 38.2153 29.0392 38.1217 29.0077C38.0281 28.9762 37.8254 28.9605 37.5187 28.9605C37.3316 28.9605 37.1757 28.9919 37.0561 29.0549C36.7442 29.0549 36.4999 29.0864 36.3128 29.1493C35.7566 29.4641 35.1849 29.7579 34.5923 30.0412C34.0049 30.3245 33.5267 30.6498 33.1525 31.0276L32.5027 31.7778C32.378 31.9037 32.2688 32.0139 32.1752 32.1083C32.0817 32.2028 32.0037 32.313 31.9413 32.4389C31.9413 32.7537 31.6295 32.9058 31.0109 32.9058C30.7614 32.654 30.6418 32.5018 30.6418 32.4389C30.6418 32.3759 30.6107 32.2815 30.5483 32.1556V30.7495C30.5483 30.6236 30.5795 30.5292 30.6418 30.4662L32.1285 28.6877C32.378 28.4358 32.669 28.1892 33.0121 27.9374C33.3552 27.6856 33.5839 27.502 33.7086 27.376L34.821 27.0035C35.0705 26.8776 35.268 26.7832 35.424 26.7202C35.5799 26.6573 35.871 26.5628 36.3076 26.4369H36.214C36.4635 26.374 36.7078 26.3267 36.9573 26.2953C37.2069 26.2638 37.5759 26.248 38.0697 26.248C38.1321 26.248 38.1945 26.2638 38.2568 26.2953C38.3192 26.3267 38.4128 26.3425 38.5375 26.3425L39.2808 26.4369C39.3432 26.4369 39.39 26.4527 39.4212 26.4841C39.4524 26.5156 39.5303 26.5314 39.6551 26.5314H39.8422C39.9046 26.5314 39.9981 26.5943 40.1229 26.7202C40.4348 26.7202 40.6479 26.9721 40.7726 27.4705C40.7726 27.2816 40.835 27.439 40.9598 27.9374L41.3288 28.5932C41.5783 29.5323 41.6719 30.3455 41.6095 31.0328C41.6095 31.5312 41.5939 31.9562 41.5627 32.2972C41.5315 32.6435 41.4536 33.0317 41.3288 33.4672C41.2664 33.9026 41.1885 34.3276 41.0949 34.7316C41.0014 35.1356 40.8922 35.4661 40.7674 35.7179C40.7051 36.0327 40.6271 36.3265 40.5335 36.6098C40.44 36.8931 40.3308 37.124 40.2061 37.3128L39.837 37.9686L37.7007 42.1868C37.4512 42.6223 37.1289 43.1574 36.7234 43.7817C36.3232 44.406 35.7774 45.1878 35.0965 46.1269L32.0297 49.8781C30.855 51.2527 29.5399 52.6745 28.0845 54.1435C26.629 55.6125 25.158 57.0343 23.6714 58.4089L19.118 62.3437C17.4443 63.5294 15.7445 64.6259 14.0084 65.6227H14.102C13.7329 65.7487 13.2651 65.9061 12.7089 66.0897C12.1528 66.2785 11.6278 66.4359 11.1288 66.5566C10.3231 66.9291 9.42384 67.1809 8.43623 67.3069H6.76249C6.20631 67.3069 5.65013 67.1809 5.08876 66.9344C4.96401 66.8714 4.79247 66.8084 4.57936 66.7455C4.36104 66.6825 4.19471 66.5881 4.06996 66.4622C3.94521 66.3363 3.77368 66.2261 3.56056 66.1317C3.34225 66.0372 3.17591 65.927 3.05116 65.8011C2.24548 65.3027 1.62693 64.5525 1.1955 63.5504L0.639316 62.3332C0.639316 62.2073 0.576941 62.0499 0.45219 61.8663C0.327439 61.3679 0.265064 60.9901 0.265064 60.7435C0.140313 60.3081 0.0623442 59.8044 0.0311565 59.243C-3.11695e-05 58.6817 -0.015625 58.1518 -0.015625 57.6481C-0.015625 56.9608 -3.11695e-05 56.368 0.0311565 55.8696C0.0623442 55.3712 0.109126 54.836 0.171501 54.2746L0.821244 51.3681L1.37742 49.9621L1.84004 48.4616L2.48978 47.15C2.80166 46.4627 3.10834 45.7911 3.42022 45.1353C3.73209 44.4795 4.10115 43.8394 4.53258 43.2151C4.96401 42.3389 5.46301 41.447 6.01919 40.5447C6.57537 39.637 7.19392 38.7504 7.87485 37.8742L9.45503 35.9068C9.82408 35.5343 10.1671 35.1093 10.479 34.6424C10.7909 34.1754 11.1911 33.719 11.6849 33.2836C12.9221 31.7831 14.2527 30.2511 15.677 28.6877C17.1012 27.1242 18.5254 25.7182 19.9497 24.4695C21.3739 23.2208 22.9073 21.9092 24.5499 20.5347C26.1924 19.1601 27.783 17.8799 29.332 16.689C31.1253 15.2515 32.8458 13.9871 34.4883 12.8906C36.1309 11.7993 37.6903 10.7815 39.1769 9.84236V10.0312C39.8578 9.46986 40.4296 9.06064 40.8974 8.81406C41.36 8.56223 41.8434 8.28416 42.3372 7.96938L44.38 6.7522L49.7651 4.40703C50.1341 4.21815 50.5396 4.06076 50.971 3.94009C51.4024 3.81418 51.7767 3.68826 52.0834 3.56759C52.5772 3.44168 53.1489 3.25281 53.8039 3.00622C54.4536 2.75439 54.963 2.47633 55.3373 2.16154C55.7687 2.03563 56.4029 1.84675 57.2397 1.60017C58.0766 1.34834 58.9758 1.10176 59.9323 0.849927C60.8939 0.598097 61.8503 0.398731 62.8119 0.241337C63.7735 0.0839434 64.5896 0.00524646 65.2757 0.00524646L65.2965 0Z" fill="#1D1D1B"/>
<path d="M118.794 59.4372C118.669 59.689 118.669 59.8254 118.794 59.8569C118.919 59.8884 119.121 59.8411 119.397 59.7152C119.678 59.5893 119.984 59.4319 120.327 59.2483C120.67 59.0594 120.93 58.9073 121.117 58.7814C122.048 58.22 122.838 57.7058 123.488 57.2337C124.137 56.7667 124.803 56.1844 125.484 55.4971L126.97 53.9966C127.095 53.8707 127.157 53.8077 127.157 53.8077C127.282 53.5559 127.438 53.3408 127.62 53.1519C127.807 52.963 127.963 52.7479 128.083 52.4961L129.107 51.1845C129.044 51.1215 129.029 51.0428 129.06 50.9484C129.091 50.854 129.107 50.7438 129.107 50.6179L128.738 50.2454H128.088C127.719 50.2454 127.376 50.3713 127.064 50.6179L126.32 50.9904C126.196 51.0533 126.04 51.1478 125.858 51.2737C125.489 51.5255 125.239 51.6777 125.115 51.7406C125.115 51.7406 125.083 51.8036 125.021 51.9295L123.815 52.963C123.69 53.089 123.519 53.2621 123.306 53.4772C123.087 53.6975 122.921 53.834 122.796 53.8969C122.672 54.2694 122.427 54.5212 122.053 54.6472L121.866 55.1141L120.286 56.9871L119.542 58.1098L118.893 59.0489L118.799 59.4214L118.794 59.4372ZM128.639 48.2832C128.826 48.2832 129.008 48.3304 129.195 48.4249C129.382 48.5193 129.564 48.6295 129.751 48.7554C130.001 48.7554 130.183 48.8813 130.307 49.1279C130.494 49.2538 130.588 49.3797 130.588 49.5004C130.588 49.6892 130.635 49.8152 130.728 49.8729C130.822 49.9358 130.869 50.0617 130.869 50.2454V50.1509C131.118 50.5864 131.212 50.9799 131.149 51.3209C131.087 51.6672 130.993 51.9924 130.869 52.3072L130.219 53.1519L129.382 54.2747C129.32 54.3376 129.226 54.432 129.101 54.558C128.977 54.6839 128.883 54.8098 128.821 54.9305C128.758 54.9934 128.727 55.0564 128.727 55.1193C128.602 55.2452 128.54 55.3082 128.54 55.3082C128.54 55.3082 128.478 55.3712 128.353 55.4971C128.103 55.8696 127.859 56.389 127.61 57.0448C127.36 57.7006 127.178 58.2147 127.053 58.5925L126.684 59.8097C126.684 59.9356 126.669 60.0143 126.638 60.0458C126.606 60.0772 126.591 60.1559 126.591 60.2819C126.591 60.4078 126.622 60.5652 126.684 60.7488C126.684 60.8747 126.7 61.0006 126.731 61.1213C126.762 61.2472 126.778 61.3731 126.778 61.4938L127.059 62.0552V61.9607C127.059 61.8348 127.152 61.8663 127.339 62.0552H127.246L127.895 62.5221H128.265C128.327 62.5221 128.389 62.5536 128.452 62.6165C128.514 62.6795 128.576 62.711 128.639 62.711C128.701 62.585 128.764 62.5536 128.826 62.6165C128.888 62.6795 128.982 62.711 129.107 62.711C129.231 62.585 129.387 62.5221 129.569 62.5221H130.032C130.157 62.5221 130.235 62.4906 130.266 62.4277C130.297 62.3647 130.375 62.3332 130.5 62.3332L131.243 62.1443L131.799 61.9555L132.636 61.4885L134.403 60.2714L135.334 59.71C135.646 59.3952 135.937 59.1014 136.217 58.8181C136.498 58.5348 136.789 58.3039 137.101 58.1151L138.031 57.2704L141.28 54.175C141.405 53.9861 141.545 53.8759 141.696 53.8444C141.852 53.813 142.081 53.7343 142.393 53.6084L142.855 53.9809C143.105 54.2956 143.167 54.5107 143.042 54.6367C142.918 54.7626 142.762 54.9829 142.58 55.2925C141.524 56.2316 140.818 56.9503 140.443 57.4488C140.074 57.9472 139.669 58.4194 139.237 58.8548C139.237 58.8548 139.175 58.9178 139.05 59.0437L138.863 59.2326L136.727 60.9219L136.077 61.5777C135.396 62.0132 134.7 62.4854 133.987 62.9838C133.275 63.4822 132.579 63.8285 131.898 64.0173C131.836 64.0173 131.773 64.0488 131.711 64.1118C131.648 64.1747 131.555 64.2062 131.43 64.2062C131.061 64.3321 130.593 64.3951 130.037 64.3951C129.85 64.458 129.543 64.4895 129.107 64.4895C129.107 64.6154 128.982 64.6784 128.738 64.6784C128.55 64.6784 128.394 64.6469 128.275 64.5839C128.15 64.521 127.843 64.458 127.344 64.3951L127.438 64.4895C127.376 64.4895 127.313 64.458 127.251 64.3951H127.157L126.508 64.0226C126.139 63.7707 125.827 63.4455 125.577 63.0362C125.328 62.6323 125.177 62.2388 125.115 61.8663C125.052 61.3679 124.99 60.8799 124.927 60.413C124.865 59.9461 124.959 59.3637 125.208 58.6764V58.582L124.652 58.9545L123.909 59.6103C123.659 59.9251 123.337 60.1717 122.931 60.3605C122.531 60.5494 122.173 60.733 121.866 60.9219L121.679 61.0164C121.185 61.3311 120.764 61.5462 120.426 61.6722C120.083 61.7981 119.792 61.924 119.542 62.0447C119.48 62.0447 119.418 62.0604 119.355 62.0919C119.293 62.1234 119.23 62.1391 119.168 62.1391C119.043 62.2021 118.934 62.2021 118.841 62.1391C118.747 62.0761 118.607 62.0447 118.425 62.0447L117.962 62.1391C117.775 62.1391 117.562 62.0447 117.312 61.8558C117.063 61.7928 116.928 61.7614 116.897 61.7614C116.865 61.7614 116.819 61.604 116.756 61.2944C116.756 61.1685 116.709 61.0898 116.616 61.0583C116.522 61.0268 116.476 60.9796 116.476 60.9167L116.663 59.6051L117.032 58.8548L116.845 58.9492L117.125 58.2934L117.588 57.4488L118.331 56.326C118.394 56.2631 118.425 56.1686 118.425 56.0427L118.887 55.3869L121.024 52.6692L120.837 52.7637C120.961 52.6378 121.086 52.5276 121.206 52.4331C121.33 52.3387 121.455 52.2285 121.575 52.1026L122.781 51.0691L123.524 50.4133L123.43 50.6021L125.104 49.3849C125.416 49.1331 125.957 48.8865 126.731 48.6347C127.506 48.3829 128.14 48.2622 128.634 48.2622L128.639 48.2832Z" fill="#1D1D1B"/>
<path d="M144.43 50.0617C144.181 50.3135 143.858 50.7175 143.453 51.2789C143.053 51.8403 142.787 52.2495 142.663 52.4961C142.294 53.2463 142.107 53.7132 142.107 53.9021C142.107 53.9651 142.263 53.7447 142.569 53.2463C142.881 52.7479 143.094 52.3702 143.219 52.1236C143.219 52.0606 143.25 51.9977 143.312 51.9347L143.593 51.6514L144.43 50.0565V50.0617ZM146.286 47.9998C146.348 48.1258 146.426 48.2359 146.52 48.3304C146.613 48.4248 146.66 48.6294 146.66 48.939C146.66 49.3115 146.551 49.6577 146.332 49.9725C146.114 50.2873 145.917 50.5968 145.73 50.9116L144.986 52.1288L144.524 52.6902L144.711 52.5957L144.155 53.4404L143.598 53.9074L144.898 53.4404L146.665 52.6902L147.596 52.4069C147.658 52.4069 147.705 52.3911 147.736 52.3597C147.767 52.3282 147.814 52.3124 147.876 52.3124C148.001 52.1865 148.157 52.1393 148.339 52.1708C148.526 52.2023 148.77 52.218 149.082 52.218C149.269 52.218 149.41 52.3282 149.498 52.5485C149.592 52.7689 149.701 52.9368 149.826 53.0627V53.4352C149.888 53.687 149.857 53.9336 149.732 54.1854C149.607 54.4373 149.545 54.7153 149.545 55.0301L149.358 55.219L148.895 55.9692L148.245 56.7195L146.852 58.22L144.347 61.4098C144.222 61.5357 144.066 61.7561 143.884 62.0656C143.697 62.3804 143.541 62.627 143.422 62.8159L143.053 64.033V64.2219C143.053 64.2849 143.084 64.3478 143.146 64.4108C143.209 64.4737 143.271 64.5052 143.333 64.5052L144.077 64.5997H144.404C144.498 64.5997 144.7 64.5367 145.007 64.4108C145.194 64.2849 145.303 64.1904 145.334 64.1275C145.366 64.0645 145.568 64.033 145.937 64.033C146 63.9701 146.125 63.8756 146.307 63.7497C146.494 63.6238 146.65 63.5609 146.769 63.5609L147.512 63.2775C147.7 63.0887 147.928 62.905 148.209 62.7162C148.49 62.5273 148.562 62.4958 148.443 62.6217L149.929 61.6826C150.61 61.3101 151.276 60.8694 151.925 60.371C152.575 59.8726 153.241 59.3689 153.921 58.8705L156.708 56.5253C157.019 56.2735 157.248 56.0899 157.404 55.964C157.56 55.8381 157.7 55.7121 157.82 55.5915L158.007 55.4026L158.563 54.9357C158.688 54.7468 158.844 54.5632 159.026 54.3743C159.213 54.1854 159.457 54.091 159.769 54.091C160.45 54.091 160.653 54.3743 160.372 54.9357C160.091 55.497 159.8 55.9692 159.488 56.3417L158.745 56.9031C158.62 56.9661 158.511 57.0605 158.418 57.1864C158.324 57.3123 158.246 57.4382 158.184 57.5589L157.628 57.9314C157.378 58.1832 157.134 58.4456 156.884 58.7289C156.635 59.0122 156.359 59.2115 156.047 59.3375C155.736 59.4634 155.522 59.605 155.398 59.7572C155.273 59.9146 155.179 60.0247 155.117 60.0877L154.005 61.0268C152.705 62.0918 151.572 62.8683 150.616 63.372C149.659 63.8756 148.864 64.3111 148.245 64.6836C147.876 64.9354 147.502 65.182 147.133 65.4338C146.764 65.6857 146.421 65.8378 146.109 65.9008L144.809 66.3677L143.416 66.5566L143.047 66.3677C142.798 66.3677 142.647 66.3362 142.585 66.2733C142.398 66.2733 142.185 66.1474 141.935 65.9008C141.748 65.7749 141.592 65.6647 141.472 65.5703C141.348 65.4758 141.285 65.3027 141.285 65.0561L141.098 64.4947L141.467 62.8998C141.467 62.7109 141.561 62.5273 141.748 62.3384C142.06 61.6511 142.429 61.0268 142.86 60.4654C142.985 60.2766 143.141 60.0615 143.323 59.8096C143.572 59.4371 143.941 58.965 144.435 58.4036L145.179 57.4645C145.61 57.1497 145.891 56.8401 146.015 56.5253L146.478 55.964L146.384 56.1529L147.034 55.1193L146.384 55.4026C146.135 55.5285 145.875 55.6387 145.594 55.7331C145.314 55.8276 145.023 55.9063 144.711 55.9692L143.687 56.2525C143.5 56.3155 143.318 56.3785 143.131 56.4414C142.943 56.5044 142.73 56.5358 142.481 56.5358L140.994 56.347C140.5 55.9745 140.251 55.5023 140.251 54.9409C140.189 54.878 140.157 54.815 140.157 54.752V54.5632C140.344 53.4981 140.62 52.6272 140.994 51.9399L142.2 50.1561L144.43 47.9998C144.492 47.9998 144.773 47.811 145.267 47.4385H145.73L146.286 47.9998Z" fill="#1D1D1B"/>
<path d="M180.836 32.7169V32.6225L180.93 32.5281L180.836 32.7169ZM171.735 36.3737L172.385 36.0904L175.077 35.529C175.389 35.4661 175.68 35.4031 175.961 35.3402C176.241 35.2772 176.533 35.1828 176.844 35.0569L177.032 34.868L178.144 33.1786L179.537 31.0223V31.1168L180.093 30.2721C180.093 30.2091 180.124 30.1462 180.187 30.0832L180.374 29.8943C180.374 29.7055 180.467 29.4589 180.655 29.1441L181.117 28.3939C181.242 27.9584 181.226 27.6593 181.07 27.502C180.914 27.3446 180.467 27.4862 179.724 27.9217C178.981 28.3571 178.3 28.9552 177.681 29.7002L177.312 29.9835L176.943 30.4505L176.574 30.823C176.449 30.9489 176.309 31.0905 176.158 31.2427C176.002 31.4001 175.956 31.4158 176.018 31.2899C175.831 31.5417 175.618 31.7254 175.368 31.8513L174.344 32.8848L173.882 33.6351L172.858 34.7578L172.114 35.6969L171.745 36.3527L171.735 36.3737ZM161.796 52.8738C161.921 52.685 162.093 52.4541 162.306 52.1708C162.524 51.8875 162.69 51.6881 162.815 51.5622L165.139 49.0334L166.163 47.9107C166.35 47.7218 166.521 47.5539 166.672 47.3965C166.828 47.2391 166.968 47.0083 167.088 46.6935L169.411 44.1647L171.548 41.7251L172.66 40.2246L173.96 38.7241C174.084 38.5353 174.225 38.3359 174.375 38.1156C174.531 37.8952 174.672 37.6958 174.791 37.507C173.861 37.6958 172.936 37.9424 172.005 38.2572L170.056 38.6297V38.7241L168.476 41.3474L167.083 43.3148C166.651 43.9391 166.215 44.6421 165.783 45.4239C165.352 46.2056 164.946 47.0345 164.577 47.9107L164.208 48.4721C163.652 49.4112 163.153 50.2821 162.722 51.0953C162.534 51.2212 162.441 51.3471 162.441 51.4678L161.791 52.8738H161.796ZM209.721 30.844H210.927C211.296 30.844 211.702 30.8754 212.133 30.9384C212.565 31.0013 212.97 31.0328 213.339 31.0328H214.545C214.67 31.0328 214.857 31.143 215.101 31.3634C215.351 31.5837 215.47 31.7516 215.47 31.8775V32.4389C215.346 32.6278 215.143 32.8271 214.867 33.0475C214.587 33.2678 214.327 33.378 214.077 33.378C213.459 33.315 212.856 33.2678 212.268 33.2363C211.681 33.2049 211.078 33.1891 210.46 33.1891C209.529 33.1262 208.755 33.0947 208.136 33.0947H204.05C203.245 33.0947 202.195 33.1262 200.89 33.1891C199.835 33.315 198.832 33.4252 197.87 33.5196C196.909 33.6141 195.968 33.6928 195.037 33.7557C194.912 33.7557 194.757 33.7872 194.575 33.8502C194.263 33.8502 194.018 33.8817 193.831 33.9446C193.707 33.9446 193.582 33.9604 193.462 33.9918C193.338 34.0233 193.182 34.039 193 34.039C192.631 34.102 192.225 34.165 191.794 34.2279C191.362 34.2909 190.988 34.3224 190.681 34.3224C190.369 34.4483 189.969 34.527 189.475 34.5584C188.982 34.5899 188.483 34.6686 187.989 34.7945C187.802 34.8575 187.63 34.8732 187.479 34.8418C187.323 34.8103 187.001 34.8575 186.502 34.9834L183.81 35.6392C183.685 35.6392 183.576 35.655 183.482 35.6864C183.389 35.7179 183.279 35.7337 183.155 35.7337C183.03 35.8596 182.786 35.9225 182.411 35.9225C182.287 35.9225 182.193 35.9383 182.131 35.9697C182.068 36.0012 181.975 36.017 181.85 36.017L177.671 36.9561L176.647 38.0788L174.323 41.0798C174.012 41.6412 173.658 42.1553 173.258 42.6275C172.858 43.0944 172.468 43.5824 172.099 44.0808L169.593 46.8929C169.099 47.5802 168.6 48.173 168.107 48.6767L166.714 50.2716L165.69 51.5832L164.577 52.706C163.896 53.2044 163.309 53.7238 162.81 54.2537C162.316 54.7836 161.817 55.303 161.323 55.8014L160.393 57.113L159.65 58.4246C159.525 58.5505 159.463 58.6135 159.463 58.6135C159.4 58.6764 159.369 58.7394 159.369 58.8023C159.369 58.9912 159.338 59.1171 159.275 59.1748C159.088 59.4896 158.995 59.7047 158.995 59.8307C158.932 59.9566 158.901 60.2032 158.901 60.5809C158.901 60.6439 158.886 60.7225 158.854 60.817C158.823 60.9114 158.808 61.0216 158.808 61.1475C158.808 61.2105 158.776 61.2892 158.714 61.3836C158.652 61.478 158.62 61.6197 158.62 61.8033C158.62 61.8663 158.652 61.945 158.714 62.0394C158.776 62.1339 158.808 62.2125 158.808 62.2755L158.714 62.3699H158.808C158.808 62.4959 158.823 62.5903 158.854 62.6532C158.886 62.7162 158.932 62.8106 158.995 62.9366C159.057 63.3091 159.338 63.4979 159.832 63.4979C160.019 63.7498 160.512 63.8704 161.318 63.8704C161.687 63.9334 162.186 63.8075 162.805 63.4979L163.829 63.1254C164.016 62.9995 164.291 62.8736 164.666 62.7529C165.035 62.627 165.284 62.5641 165.409 62.5641C165.471 62.5641 165.534 62.5326 165.596 62.4696C165.658 62.4696 165.69 62.4539 165.69 62.4224C165.69 62.3909 165.721 62.3752 165.783 62.3752L166.246 62.1863H166.527L166.989 61.8138L167.732 61.2524C167.795 61.2524 167.857 61.2367 167.92 61.2052C167.982 61.1737 168.169 61.0951 168.476 60.9691L169.313 60.5022H169.219L170.149 59.9408L170.056 60.0353L170.612 59.6628C170.737 59.4739 170.893 59.3165 171.075 59.1958C171.262 59.0699 171.444 58.944 171.631 58.8233C171.756 58.8233 171.896 58.7604 172.047 58.6345C172.203 58.5085 172.312 58.4141 172.374 58.3512L173.118 57.9787L172.837 58.0731C172.962 57.8842 173.133 57.7426 173.346 57.6534C173.565 57.5589 173.731 57.4488 173.856 57.3228C173.918 57.3228 173.98 57.2756 174.043 57.1812C174.105 57.0868 174.167 57.0395 174.23 57.0395C174.661 56.4782 175.098 56.0375 175.529 55.7279L176.273 55.0721V55.261C176.522 55.0092 176.735 54.8885 176.922 54.8885C176.985 54.8885 177.032 54.857 177.063 54.7941C177.094 54.7311 177.203 54.6996 177.39 54.6996C177.822 54.6996 178.04 54.9514 178.04 55.4499L177.671 55.8224C177.671 56.0112 177.577 56.1949 177.39 56.3837L176.091 57.6009L174.978 58.7237L174.048 59.285L173.398 59.9408C173.273 59.9408 173.133 60.0038 172.982 60.1297C172.826 60.2556 172.717 60.3815 172.655 60.5022L171.168 61.8138V61.6249C170.919 61.8768 170.737 61.9974 170.612 61.9974L170.519 62.1863C170.394 62.3122 170.238 62.3752 170.056 62.3752C169.931 62.5011 169.791 62.5955 169.64 62.6585C169.484 62.7215 169.344 62.8159 169.224 62.9418C168.855 63.1936 168.637 63.3143 168.575 63.3143C168.387 63.3773 168.263 63.4087 168.205 63.4087L167.743 63.5976H167.836L167.093 64.159C166.968 64.159 166.844 64.1747 166.724 64.2062C166.599 64.2377 166.443 64.2534 166.261 64.2534C166.137 64.5053 165.95 64.6259 165.705 64.6259C165.58 64.6259 165.503 64.6417 165.471 64.6731C165.44 64.7046 165.393 64.7204 165.331 64.7204C165.144 64.9092 164.9 65.0037 164.588 65.0037L163.195 65.3762L162.358 65.6595C162.295 65.6595 162.249 65.6752 162.217 65.7067C162.186 65.7382 162.139 65.7539 162.077 65.7539C161.828 65.8798 161.521 65.8798 161.147 65.7539C161.022 65.7539 160.928 65.7696 160.866 65.8011C160.804 65.8326 160.71 65.8483 160.585 65.8483L159.842 65.7539C159.036 65.565 158.496 65.3971 158.215 65.2398C157.934 65.0824 157.643 64.8515 157.331 64.5367C156.9 64.1013 156.682 63.6921 156.682 63.3196V62.7582C156.682 62.6952 156.666 62.648 156.635 62.6165C156.604 62.585 156.588 62.5064 156.588 62.3804V62.1916C156.526 61.9397 156.557 61.5987 156.682 61.158V60.0353L157.051 58.4403L158.906 53.8444L159.65 52.344L160.762 49.9988L161.225 49.2485C161.225 48.9967 161.349 48.7501 161.594 48.4983L161.407 48.6872L161.869 47.9369C161.994 47.811 162.103 47.6536 162.197 47.47C162.29 47.2811 162.399 47.0345 162.524 46.7197L164.38 43.4407C164.567 43.2518 164.749 43.0525 164.936 42.8321C165.123 42.6118 165.217 42.4439 165.217 42.318C165.341 42.0032 165.513 41.6622 165.726 41.2844C165.944 40.9119 166.142 40.5656 166.329 40.2509C166.454 40.1249 166.532 39.999 166.563 39.8784C166.594 39.7524 166.672 39.6265 166.797 39.5059H166.703L163.267 40.2561C162.774 40.445 162.202 40.5866 161.547 40.6758C160.897 40.7703 160.294 40.8175 159.738 40.8175C159.244 40.9434 158.698 41.0536 158.111 41.148C157.524 41.2424 156.952 41.3211 156.391 41.3841H155.091C154.904 41.3211 154.628 41.2897 154.254 41.2897C154.067 41.1637 153.854 41.085 153.604 41.0536C153.355 41.0221 153.173 40.9434 153.048 40.8175C152.923 40.8175 152.736 40.6286 152.492 40.2561L152.586 39.5059C152.586 39.254 152.866 39.1334 153.423 39.1334H154.259C154.322 39.1334 154.353 39.1491 154.353 39.1806C154.353 39.2121 154.384 39.2278 154.446 39.2278H156.489L159.832 38.7609C161.131 38.6979 162.399 38.4461 163.642 38.0106L167.265 37.3548L168.751 37.0715C168.876 36.8197 169.016 36.5416 169.167 36.2268C169.323 35.912 169.495 35.6969 169.676 35.571L170.046 35.0096L170.882 33.8869L171.532 33.0422V33.1367C171.532 32.8848 171.657 32.7012 171.901 32.5753C171.964 32.5123 171.995 32.4179 171.995 32.292L172.832 31.5417L173.481 30.6971L174.594 29.5743C174.656 29.5114 174.687 29.4484 174.687 29.3854L176.08 27.9794L177.936 26.5733L178.305 26.3845C178.555 26.2585 178.83 26.0854 179.142 25.8703C179.454 25.65 179.542 25.5398 179.423 25.5398L180.353 24.9784L180.909 24.6059C181.096 24.543 181.403 24.5115 181.84 24.5115C181.902 24.5115 182.058 24.5744 182.302 24.7003C182.552 24.8263 182.703 24.9207 182.765 24.9837L183.134 25.3562C183.134 25.608 183.196 25.7916 183.321 25.9175V26.8566C183.196 26.9826 183.134 27.1242 183.134 27.2764V27.6961C183.134 27.822 183.118 27.9636 183.087 28.1158C183.056 28.2732 183.04 28.4148 183.04 28.5355L182.76 29.3802C182.635 29.632 182.573 29.8471 182.573 30.036L181.367 31.8145C181.242 31.9405 181.102 32.1451 180.951 32.4231C180.795 32.7064 180.748 32.8114 180.81 32.7537L179.698 34.1597L179.605 34.3486L180.81 34.0653C181.122 34.0653 181.382 34.0495 181.601 34.0181C181.819 33.9866 182.079 33.9394 182.391 33.8764L184.896 33.315L186.196 33.0317L187.682 32.6592C188.176 32.5333 188.675 32.4704 189.169 32.4704C189.663 32.3444 190.25 32.25 190.936 32.187C191.617 32.1241 192.204 32.0926 192.698 32.0926C192.885 31.9667 193.13 31.888 193.441 31.8565C193.753 31.825 193.998 31.8093 194.185 31.8093C194.372 31.7463 194.528 31.7149 194.647 31.7149L197.433 31.4316L200.313 31.0591C200.438 31.0591 200.531 31.0433 200.594 31.0118C200.656 30.9804 200.812 30.9646 201.056 30.9646H203.474C204.03 30.9646 204.555 30.9489 205.054 30.9174C205.547 30.8859 206.135 30.8702 206.821 30.8702H209.701L209.721 30.844Z" fill="#1D1D1B"/>
<path d="M182.879 43.8708L183.066 44.0597C183.129 44.1227 183.16 44.2014 183.16 44.2958C183.16 44.3902 183.191 44.4689 183.254 44.5319C183.441 44.7208 183.534 44.8152 183.534 44.8152V44.9096L183.628 45.9432C183.503 46.0691 183.394 46.1793 183.3 46.2737C183.207 46.3682 183.004 46.5728 182.697 46.8823L182.51 46.9768L181.767 47.4437C181.642 47.4437 181.58 47.4279 181.58 47.3965C181.58 47.365 181.549 47.3493 181.486 47.3493C181.424 47.3493 181.393 47.3178 181.393 47.2548C181.081 47.2548 180.93 47.0345 180.93 46.599L180.374 46.4101V45.7543C180.499 45.5655 180.592 45.3923 180.655 45.2402C180.717 45.0828 180.81 44.9411 180.935 44.8205V44.6316C180.935 44.4427 180.998 44.3011 181.122 44.2119C181.247 44.1174 181.434 44.0073 181.679 43.8813H182.235C182.297 43.8813 182.328 43.8971 182.328 43.9286C182.328 43.96 182.359 43.9758 182.422 43.9758H182.515L182.884 43.8813L182.879 43.8708ZM179.35 50.3397C179.412 50.3397 179.475 50.324 179.537 50.2925C179.599 50.261 179.693 50.2453 179.818 50.2453C179.942 50.2453 180.083 50.2296 180.234 50.1981C180.389 50.1666 180.53 50.3397 180.649 50.7122C180.774 51.2107 180.681 51.7143 180.369 52.2127L179.906 52.7741L179.625 53.241L179.532 53.4299C179.407 53.5558 179.267 53.7762 179.116 54.0857C178.96 54.4005 178.788 54.71 178.607 55.0248L178.326 55.4918L178.513 55.3973L177.77 56.9922L177.214 59.3374C177.151 59.4633 177.12 59.605 177.12 59.7571V60.0877C177.12 60.4602 177.245 60.8222 177.489 61.1684C177.739 61.5147 178.264 61.6196 179.069 61.499C179.688 61.373 180.26 61.2629 180.79 61.1684C181.315 61.074 181.918 60.8694 182.599 60.5598C183.217 60.2451 183.773 59.967 184.272 59.7152C184.771 59.4633 185.172 59.2482 185.478 59.0594L186.684 58.2147C186.934 58.0258 187.24 57.8422 187.615 57.6533C187.984 57.4644 188.233 57.2808 188.358 57.0919L189.845 55.8748L190.307 55.5023L191.887 54.2851L193 53.2515C193 53.1886 193.031 53.1256 193.093 53.0626C193.462 52.8108 193.774 52.8108 194.024 53.0626C194.148 53.3774 194.117 53.687 193.93 54.0018H193.837L193.467 54.6576C193.343 54.8464 193.156 55.0773 192.911 55.3606C192.662 55.6439 192.599 55.7174 192.724 55.5967L191.144 56.9083L190.494 57.3752L189.008 58.6869C188.758 58.9387 188.498 59.1538 188.218 59.3427C187.937 59.5315 187.708 59.6889 187.521 59.8096C186.902 60.2451 186.377 60.5756 185.941 60.7959C185.509 61.0163 185.073 61.2471 184.641 61.499L183.898 61.8715C183.586 61.9974 183.248 62.1705 182.874 62.3856C182.505 62.606 182.1 62.7739 181.668 62.8998C181.356 63.0257 180.987 63.1516 180.556 63.2723C180.124 63.3982 179.812 63.4611 179.625 63.4611C179.438 63.5871 179.194 63.6343 178.882 63.6028C178.57 63.5713 178.264 63.5556 177.952 63.5556H177.395C177.333 63.5556 177.255 63.5398 177.162 63.5084C177.068 63.4769 176.99 63.4611 176.928 63.4611C176.865 63.4611 176.818 63.4454 176.787 63.4139C176.756 63.3824 176.678 63.3667 176.553 63.3667C176.429 63.3667 176.351 63.3352 176.319 63.2723C176.288 63.2093 176.21 63.1778 176.086 63.1778L176.179 63.2723C176.117 63.2723 176.054 63.2408 175.992 63.1778C175.93 63.1149 175.867 63.0677 175.805 63.0362C175.743 63.0047 175.68 62.926 175.618 62.8001C175.431 62.6742 175.275 62.4696 175.155 62.1915C175.036 61.9134 174.937 61.6459 174.874 61.394C174.812 61.1422 174.781 60.7697 174.781 60.2713C174.843 59.7099 174.906 59.1958 174.968 58.7236C175.03 58.2566 175.124 57.8002 175.249 57.3647C175.373 57.2388 175.451 57.0657 175.483 56.8506C175.514 56.6302 175.592 56.4309 175.717 56.242C175.717 56.1161 175.748 56.0059 175.81 55.9115C175.872 55.817 175.935 55.7069 175.997 55.581L176.278 54.8307C176.403 54.7678 176.465 54.7048 176.465 54.6418C176.465 54.453 176.527 54.2956 176.652 54.1749L177.489 52.7688L177.952 52.113L178.139 51.5517L179.251 50.4289L179.345 50.3345L179.35 50.3397Z" fill="#1D1D1B"/>
<path d="M124.953 75.3916C124.953 74.6728 124.538 74.1167 123.701 73.7285C122.864 73.3402 121.725 73.1514 120.28 73.1514V78.0568C123.399 78.0201 124.953 77.1282 124.953 75.3916ZM125.853 82.0546C125.853 81.3831 125.666 80.8269 125.286 80.3757C124.907 79.9246 124.397 79.6045 123.758 79.4104C122.687 79.0641 121.533 78.891 120.296 78.891V85.2655C121.351 85.255 122.266 85.1343 123.035 84.9087C123.805 84.6831 124.387 84.3945 124.777 84.0483C125.494 83.3925 125.853 82.7262 125.853 82.0599V82.0546ZM119.574 85.9947L119.553 72.4116C121.575 72.4746 123.098 72.7474 124.127 73.2353C125.156 73.718 125.671 74.442 125.671 75.3969C125.671 76.3517 125.395 77.0705 124.849 77.5322C124.304 77.9939 123.638 78.2772 122.853 78.3821C123.883 78.4713 124.761 78.828 125.484 79.4471C126.206 80.0662 126.57 80.9686 126.57 82.1595C126.57 83.3505 125.972 84.2844 124.782 84.9612C123.586 85.6379 121.85 85.9842 119.568 85.9947H119.574Z" fill="#1D1D1B"/>
<path d="M130.105 72.459H129.382V85.9424H130.105V72.459Z" fill="#1D1D1B"/>
<path d="M140.656 85.9424H139.934V84.6307C139.934 80.6382 138.941 78.6393 136.961 78.6393C136.545 78.6393 136.145 78.7442 135.765 78.9593C135.386 79.1744 135.121 79.3581 134.975 79.5207C134.824 79.6833 134.632 79.9142 134.398 80.2237V85.9424H133.676V72.417H134.398V79.08L139.679 72.396H140.677L136.139 78.0359C136.451 77.9572 136.758 77.9205 137.059 77.9205C138.167 77.9205 139.045 78.4504 139.69 79.5049C140.334 80.5595 140.656 82.1911 140.656 84.3947V85.9424Z" fill="#1D1D1B"/>
<path d="M144.129 72.459H143.406V85.9424H144.129V72.459Z" fill="#1D1D1B"/>
<path d="M148.422 73.634V85.9422H147.694V72.4011H148.734L153.973 84.3001V72.4169H154.696V85.9422H153.973L148.422 73.634Z" fill="#1D1D1B"/>
<path d="M158.989 72.459H158.267V85.9424H158.989V72.459Z" fill="#1D1D1B"/>
<path d="M171.641 83.8963C172.229 83.3926 172.52 82.784 172.52 82.06C172.52 81.336 172.307 80.7641 171.886 80.3287C171.459 79.8984 170.95 79.5732 170.352 79.3633C169.754 79.1482 169.151 78.9331 168.543 78.718C167.935 78.4976 167.421 78.1671 167 77.7212C166.573 77.2752 166.365 76.7086 166.365 76.0108C166.365 74.7989 166.708 73.8965 167.395 73.3036C168.081 72.7108 168.897 72.417 169.848 72.417C170.799 72.417 171.844 72.5062 172.977 72.6898V73.4033C171.958 73.2249 171.007 73.1305 170.123 73.1305C169.24 73.1305 168.512 73.3771 167.94 73.865C167.374 74.3529 167.088 75.0455 167.088 75.9321C167.088 76.7033 167.493 77.2857 168.299 77.6687C168.663 77.8471 169.063 78.015 169.5 78.1724C169.936 78.3245 170.378 78.5029 170.82 78.6918C171.262 78.8859 171.662 79.1115 172.021 79.379C172.379 79.6414 172.67 80.0086 172.899 80.4808C173.128 80.953 173.242 81.4986 173.242 82.1229C173.242 82.7473 173.097 83.2982 172.8 83.7756C172.509 84.253 172.145 84.6255 171.714 84.8983C171.283 85.1711 170.784 85.3862 170.207 85.5541C169.281 85.8374 168.237 85.9791 167.077 85.9791H166.589V85.2656C168.912 85.2656 170.591 84.8091 171.636 83.8963" fill="#1D1D1B"/>
<path d="M182.994 81.2677C182.994 82.7472 182.692 83.9066 182.094 84.7356C181.497 85.5645 180.613 85.9842 179.454 85.9842C178.295 85.9842 177.427 85.5278 176.855 84.6149C176.283 83.702 175.992 82.5845 175.992 81.2729V72.4221H176.714V81.2519C176.714 82.5635 176.985 83.5656 177.525 84.2476C178.066 84.9297 178.726 85.2707 179.501 85.2707C180.275 85.2707 180.93 84.9349 181.465 84.2581C182.001 83.5813 182.266 82.5793 182.266 81.2519V72.4221H182.988V81.2729L182.994 81.2677Z" fill="#1D1D1B"/>
<path d="M187.209 72.459H186.487V85.9424H187.209V72.459Z" fill="#1D1D1B"/>
<path d="M193.4 85.9424H192.677V73.1305H189.548V72.417H196.55V73.1305H193.4V85.9424Z" fill="#1D1D1B"/>
<path d="M203.302 83.8963C203.889 83.3926 204.18 82.784 204.18 82.06C204.18 81.336 203.967 80.7641 203.546 80.3287C203.12 79.8984 202.611 79.5732 202.013 79.3633C201.415 79.1482 200.812 78.9331 200.204 78.718C199.596 78.4976 199.081 78.1671 198.66 77.7212C198.234 77.2752 198.026 76.7086 198.026 76.0108C198.026 74.7989 198.369 73.8965 199.055 73.3036C199.741 72.7108 200.558 72.417 201.509 72.417C202.46 72.417 203.505 72.5062 204.638 72.6898V73.4033C203.619 73.2249 202.668 73.1305 201.784 73.1305C200.901 73.1305 200.173 73.3771 199.601 73.865C199.035 74.3529 198.749 75.0455 198.749 75.9321C198.749 76.7033 199.154 77.2857 199.96 77.6687C200.324 77.8471 200.724 78.015 201.16 78.1724C201.597 78.3245 202.039 78.5029 202.481 78.6918C202.923 78.8859 203.323 79.1115 203.681 79.379C204.04 79.6414 204.331 80.0086 204.56 80.4808C204.789 80.953 204.903 81.4986 204.903 82.1229C204.903 82.7473 204.757 83.2982 204.461 83.7756C204.17 84.253 203.806 84.6255 203.375 84.8983C202.943 85.1711 202.444 85.3862 201.867 85.5541C200.942 85.8374 199.897 85.9791 198.738 85.9791H198.25V85.2656C200.573 85.2656 202.252 84.8091 203.297 83.8963" fill="#1D1D1B"/>
</g>
<defs>
<linearGradient id="paint0_linear_903_918" x1="236.314" y1="56.0112" x2="270.932" y2="56.0112" gradientUnits="userSpaceOnUse">
<stop stop-color="#EFBE3F"/>
<stop offset="0.27" stop-color="#FFEE92"/>
<stop offset="0.29" stop-color="#FFEE92"/>
<stop offset="0.41" stop-color="#EFB941"/>
<stop offset="0.44" stop-color="#EFB941"/>
<stop offset="0.62" stop-color="#A16101"/>
<stop offset="0.77" stop-color="#F0A545"/>
<stop offset="1" stop-color="#EFBE3F"/>
</linearGradient>
<clipPath id="clip0_903_918">
<rect width="271" height="86" fill="white"/>
</clipPath>
</defs>
</svg>
