<svg width="22" height="22" viewBox="0 0 22 22" fill="none" xmlns="http://www.w3.org/2000/svg">
<g id="star (5) 1" clip-path="url(#clip0_1350_1968)">
<path id="Vector" d="M16.0972 19.4204C15.9506 19.421 15.806 19.3864 15.6755 19.3196L11.0005 16.8721L6.32551 19.3196C6.17371 19.3994 6.00255 19.4351 5.8315 19.4225C5.66045 19.4099 5.49637 19.3495 5.35791 19.2483C5.21945 19.1471 5.11216 19.009 5.04824 18.8499C4.98433 18.6907 4.96635 18.5168 4.99635 18.3479L5.91301 13.1871L2.13635 9.52044C2.01852 9.40285 1.93493 9.2554 1.89456 9.09391C1.85418 8.93241 1.85855 8.76297 1.90718 8.60377C1.96031 8.44085 2.05804 8.29609 2.18929 8.18591C2.32053 8.07574 2.48003 8.00455 2.64968 7.98044L7.87468 7.2196L10.1755 2.5171C10.2506 2.36212 10.3678 2.23141 10.5137 2.13996C10.6596 2.04851 10.8283 2 11.0005 2C11.1727 2 11.3414 2.04851 11.4873 2.13996C11.6333 2.23141 11.7505 2.36212 11.8255 2.5171L14.1538 7.21044L19.3788 7.97127C19.5485 7.99538 19.708 8.06657 19.8392 8.17675C19.9705 8.28693 20.0682 8.43169 20.1213 8.5946C20.17 8.7538 20.1743 8.92324 20.134 9.08474C20.0936 9.24623 20.01 9.39368 19.8922 9.51127L16.1155 13.1779L17.0322 18.3388C17.0649 18.5106 17.0478 18.6883 16.9828 18.8507C16.9178 19.0131 16.8077 19.1536 16.6655 19.2554C16.4995 19.3718 16.2997 19.4298 16.0972 19.4204Z" fill="#1F2937"/>
</g>
<defs>
<clipPath id="clip0_1350_1968">
<rect width="22" height="22" fill="white"/>
</clipPath>
</defs>
</svg>
