<svg width="22" height="22" viewBox="0 0 22 22" fill="none" xmlns="http://www.w3.org/2000/svg">
<g id="star (5) 5" clip-path="url(#clip0_1350_1977)">
<path id="Vector" d="M16.253 18.921L16.2405 18.9204L16.228 18.9204C16.1619 18.9207 16.0968 18.9053 16.0379 18.8754C16.0374 18.8751 16.0368 18.8749 16.0363 18.8746L11.3652 16.4291L11.1333 16.3077L10.9014 16.4291L6.22642 18.8766L6.22562 18.8771C6.15661 18.9133 6.07881 18.9295 6.00107 18.9238C5.92332 18.9181 5.84873 18.8907 5.7858 18.8446C5.72286 18.7986 5.67409 18.7359 5.64504 18.6635C5.61599 18.5912 5.60782 18.5122 5.62145 18.4354L5.12916 18.3479L5.62145 18.4354L6.53812 13.2745L6.58453 13.0132L6.39412 12.8284L2.6204 9.16456C2.56786 9.11144 2.53057 9.04515 2.51244 8.97264C2.49447 8.90075 2.496 8.8254 2.51683 8.75434C2.54129 8.68211 2.58513 8.61793 2.64358 8.56886C2.70324 8.51878 2.77574 8.48642 2.85285 8.47546L2.85454 8.47522L8.07954 7.71438L8.34065 7.67636L8.45662 7.43935L10.7575 2.73685L10.7583 2.73505C10.7924 2.6646 10.8457 2.60519 10.912 2.56362C10.9784 2.52205 11.0551 2.5 11.1333 2.5C11.2116 2.5 11.2883 2.52205 11.3546 2.56362C11.4209 2.60519 11.4742 2.6646 11.5083 2.73505L11.5083 2.73506L11.5104 2.73931L13.8387 7.43264L13.9552 7.66745L14.2146 7.70522L19.4396 8.46605L19.4413 8.46629C19.5184 8.47725 19.5909 8.50961 19.6506 8.55969C19.709 8.60877 19.7529 8.67294 19.7773 8.74517C19.7982 8.81622 19.7997 8.89158 19.7817 8.96347C19.7636 9.03597 19.7263 9.10224 19.6738 9.15536L15.9 12.8192L15.7096 13.0041L15.756 13.2654L16.6727 18.4262L16.6727 18.4262L16.6738 18.4323C16.6887 18.5104 16.6809 18.5912 16.6514 18.665C16.6222 18.738 16.5729 18.8013 16.5092 18.8475C16.4342 18.8993 16.3442 18.9252 16.253 18.921Z" stroke="#1F2937"/>
</g>
<defs>
<clipPath id="clip0_1350_1977">
<rect width="22" height="22" fill="white"/>
</clipPath>
</defs>
</svg>
