<svg width="818" height="426" viewBox="0 0 818 426" fill="none" xmlns="http://www.w3.org/2000/svg">
<g clip-path="url(#clip0_903_940)">
<path d="M255.361 296.692C256.308 295.745 257.229 294.587 258.177 293.166C259.124 291.745 259.914 290.587 260.519 289.64H260.045C260.677 288.061 261.703 286.667 263.098 285.403C264.519 284.14 265.677 282.746 266.625 281.167L276.494 268.01V267.062C276.494 266.747 276.573 266.589 276.731 266.589C276.888 266.589 276.967 266.431 276.967 266.115L283.073 256.247L299.522 231.801V232.275C299.522 231.644 300.153 231.012 301.39 230.407C301.706 229.775 301.864 229.302 301.864 228.986L305.154 223.355L307.022 221.013L306.075 221.486C307.654 219.302 309.049 217.171 310.312 215.145C311.575 213.118 312.654 210.829 313.602 208.329L321.602 195.646L327.708 186.699L329.129 184.357C329.445 183.41 329.919 182.541 330.55 181.778C331.182 180.989 331.656 180.12 331.971 179.199L335.261 174.016L319.734 189.541L317.865 190.962L299.522 207.408L298.1 208.829C297.785 209.145 297.469 209.619 297.153 210.25L291.968 214.96L259.519 250.221L250.123 259.616L244.939 266.194L237.886 275.115L229.885 284.061L228.016 285.93L222.384 294.403L218.147 300.508C217.516 301.771 216.805 302.771 216.042 303.56C215.252 304.35 214.384 305.35 213.463 306.613L204.988 319.77C204.673 320.085 204.199 320.559 203.567 321.191C202.936 321.822 202.304 322.454 201.699 323.059L198.409 329.638L198.883 329.164L197.014 331.979C195.435 333.558 194.277 335.032 193.488 336.453C192.698 337.874 191.988 339.19 191.382 340.453C188.882 344.847 186.198 349.689 183.382 355.031C180.566 360.346 178.197 365.214 176.329 369.609C174.749 372.109 173.591 374.082 172.802 375.477C172.012 376.898 171.302 378.845 170.697 381.345C170.697 381.661 170.539 382.134 170.223 382.766C169.907 383.397 169.749 383.871 169.749 384.187L165.986 393.134C165.986 393.765 165.828 394.239 165.512 394.555C165.196 394.87 165.038 395.344 165.038 395.976C165.038 398.16 164.88 399.581 164.565 400.212L166.433 399.738V397.87L172.065 392.239C173.644 391.607 176.144 389.265 179.592 385.187H180.066C179.75 385.187 180.224 384.871 181.487 384.239L183.829 381.897L188.066 376.714L196.067 368.24L212.989 348.952L217.226 342.847L220.042 340.979L222.858 338.163L234.148 323.585C233.833 323.901 233.991 323.743 234.622 323.112C235.254 322.48 235.964 321.691 236.728 320.77C237.517 319.822 238.386 318.822 239.307 317.717C240.254 316.612 241.044 315.612 241.649 314.665L247.755 307.139C248.071 306.507 248.702 305.56 249.623 304.323C250.571 303.06 251.36 302.139 251.966 301.508C252.597 301.192 253.229 300.56 253.834 299.639C254.466 298.692 254.939 297.903 255.255 297.297V296.824L255.361 296.692ZM330.603 0C331.234 0 331.866 0.0789425 332.471 0.236827C333.103 0.394712 333.893 0.473655 334.814 0.473655H340.446L352.683 4.23658L359.737 8.47316L364.447 10.3415L370.079 16.92L375.264 22.1039C375.264 23.0512 375.58 23.8406 376.211 24.4459L377.159 28.2088V27.7351C378.422 28.9982 379.027 31.0244 379.027 33.84C379.659 35.7083 380.133 38.1555 380.449 41.129C380.764 44.1025 381.08 46.8392 381.396 49.3654V60.891C381.396 62.3119 381.238 63.6276 380.922 64.8907C380.922 66.4696 380.764 68.18 380.449 70.0746C380.133 71.9429 379.817 73.3639 379.501 74.3112C379.501 75.2585 379.422 76.4953 379.264 78.0741C379.106 79.653 379.027 80.7318 379.027 81.3634L377.159 89.3629C377.159 90.3102 377.001 91.3101 376.685 92.4153C376.369 93.5205 376.211 94.6784 376.211 95.9414C374.948 100.967 373.632 105.967 372.211 110.993C370.79 116.019 369.316 121.019 367.737 126.045C367.421 127.624 367.027 129.176 366.553 130.755C366.079 132.334 365.368 133.886 364.447 135.465L367.737 132.176C377.133 124.966 386.159 118.624 394.765 113.125C403.398 107.651 411.767 102.704 419.925 98.3097V98.7834C424.636 95.3362 429.163 92.4417 433.558 90.0734C437.953 87.7314 442.348 85.4421 446.717 83.258C451.112 81.3897 455.507 79.4951 459.875 77.6268C464.27 75.7585 468.955 73.8639 473.982 71.9956H475.64C476.429 71.9956 477.14 71.8377 477.745 71.5219C478.061 71.5219 479.482 71.2061 481.982 70.5746H485.272C485.904 70.2588 487.298 70.1009 489.509 70.1009H492.325C493.904 70.1009 495.141 70.2588 496.089 70.5746L501.273 73.8639C501.589 74.8112 501.984 75.89 502.457 77.1531C502.931 78.4162 503.326 79.8109 503.642 81.3897C504.589 83.258 505.063 85.9421 505.063 89.3892C505.063 90.9681 504.984 93.0732 504.826 95.7309C504.668 98.3887 504.273 100.836 503.642 103.02C502.694 108.362 501.694 113.361 500.589 118.072C499.484 122.782 497.694 127.466 495.194 132.176L492.378 137.807L487.667 145.807L488.141 145.333L483.43 154.727L481.561 159.911C475.929 168.99 470.271 177.463 464.639 185.304L457.112 196.593L449.111 208.356L441.585 220.118L434.058 231.88L431.242 235.17H431.715C430.768 236.749 430.136 237.591 429.847 237.748C429.531 237.906 429.057 238.775 428.426 240.327L420.899 252.09L410.556 266.194C411.819 264.615 413.135 263.3 414.556 262.194C415.977 261.089 417.135 260.089 418.083 259.142L434.084 241.275L455.243 220.118L467.929 208.356L474.034 202.724L476.377 200.382L497.062 182.515L501.299 178.752C502.878 178.121 504.905 176.41 507.405 173.568L509.747 171.226C513.195 169.042 516.643 166.516 520.09 163.7C523.538 160.885 526.985 157.911 530.433 154.754C532.617 153.175 534.591 151.78 536.302 150.517C538.039 149.254 539.828 147.859 541.697 146.28C542.013 146.28 542.329 146.123 542.645 145.807L545.461 143.465L556.751 135.939C556.119 136.255 556.909 135.702 559.093 134.281C561.277 132.86 563.014 131.702 564.278 130.755L574.147 122.756C577.279 121.177 579.621 119.624 581.2 118.045L601.886 105.809L606.596 103.467L620.703 96.8887C621.019 96.8887 621.413 96.7309 621.887 96.4151C622.361 96.0993 622.756 95.9414 623.071 95.9414H623.545C623.861 95.9414 624.177 95.7836 624.492 95.4678C624.808 95.152 625.598 94.6784 626.835 94.0468C627.151 94.0468 627.545 93.9679 628.019 93.81C628.493 93.6521 628.888 93.5732 629.203 93.5732H629.677C629.677 93.5732 629.993 93.4153 630.625 93.0995H634.388C635.02 93.0995 635.809 93.2574 636.73 93.5732C637.046 93.8889 637.52 94.0468 638.151 94.0468C638.467 94.0468 638.941 94.2047 639.573 94.5205C640.204 94.8362 640.678 94.9941 640.994 94.9941L644.283 99.2307V103.941L643.336 109.572C643.336 110.204 643.257 110.835 643.099 111.44C642.941 112.072 642.862 112.704 642.862 113.309C642.547 114.888 642.152 116.44 641.678 118.019C641.204 119.598 640.652 121.15 640.02 122.729L634.388 135.413L625.914 147.649H626.387L621.203 155.648L621.677 155.175L616.966 165.042L599.57 189.962L592.517 201.251L593.464 200.303L590.648 204.54C590.332 205.172 589.937 206.04 589.464 207.119C588.99 208.224 587.964 209.855 586.411 212.066L586.885 211.592L584.069 215.829C581.884 219.276 579.91 222.802 578.2 226.407C576.463 230.012 574.515 233.38 572.331 236.512V236.038C571.699 236.67 571.383 237.301 571.383 237.906L569.515 240.722C567.015 243.853 564.962 247.616 563.409 252.011C560.909 256.721 558.304 261.405 555.645 266.115C552.987 270.825 550.698 275.509 548.829 280.22C545.697 286.167 542.96 292.061 540.592 297.85C538.249 303.639 535.802 309.534 533.302 315.48C530.802 320.822 528.512 326.454 526.485 332.401C524.459 338.348 522.801 344.321 521.538 350.268C520.274 354.347 519.274 358.662 518.485 363.188C517.695 367.74 517.143 372.188 516.827 376.582V389.265C516.827 392.397 517.301 396.002 518.248 400.081L520.117 409.027C520.117 409.659 520.274 410.212 520.59 410.685C520.906 411.159 521.222 411.711 521.538 412.343L523.88 416.106C523.88 416.422 524.117 416.816 524.591 417.29C525.064 417.764 525.459 418.632 525.775 419.869C525.775 420.185 526.249 420.816 527.196 421.737C527.196 422.369 526.328 423.237 524.617 424.316C522.88 425.421 521.88 425.974 521.564 425.974C519.38 425.974 518.116 425.342 517.801 424.105L517.327 423.158C517.327 423.79 517.169 423.948 516.853 423.632C515.906 423.316 515.116 423 514.511 422.684C513.879 422.369 513.248 421.421 512.642 419.869C512.326 419.553 512.169 418.764 512.169 417.527L511.695 416.106C511.379 415.79 510.984 415.316 510.511 414.685C510.037 414.053 509.8 413.264 509.8 412.343C509.8 411.711 509.326 410.606 508.379 409.054L507.431 402.949C506.484 398.87 506.01 394.633 506.01 390.265C506.01 384.634 506.168 379.056 506.484 373.582C506.8 368.109 507.274 362.846 507.905 357.82C509.168 352.189 510.484 346.61 511.905 341.137C513.327 335.663 514.642 330.716 515.906 326.322C517.485 321.927 519.353 317.086 521.538 311.744C523.722 306.428 525.775 301.56 527.643 297.166L540.802 268.483L544.092 261.431C545.671 257.984 547.303 254.379 549.04 250.616C550.777 246.853 552.724 243.406 554.909 240.275L559.146 233.696L558.672 234.17C559.304 231.986 560.541 229.775 562.435 227.591L570.91 213.487C574.042 209.092 576.331 205.408 577.726 202.435C579.147 199.461 580.621 196.567 582.2 193.725L585.016 189.488C586.595 186.041 588.937 182.436 592.069 178.673L595.833 173.042H594.885C597.385 169.911 599.675 166.779 601.701 163.648C603.728 160.516 605.702 157.227 607.57 153.78L613.202 143.912C615.387 140.149 617.755 136.307 620.255 132.387C622.756 128.466 625.124 124.308 627.309 119.914L630.598 112.861C631.862 109.73 632.467 107.835 632.467 107.23V106.757H629.177C628.545 106.757 627.756 106.914 626.835 107.23L627.309 106.757L625.44 108.178L622.624 110.519L613.229 115.23L605.702 119.94C602.254 121.519 598.649 123.387 594.885 125.571C591.122 127.755 586.885 130.597 582.2 134.044C581.568 134.044 581.095 134.281 580.779 134.755C580.463 135.228 580.305 135.15 580.305 134.518L569.489 142.518V142.044L548.329 156.148L545.987 158.964C545.039 159.911 544.118 160.622 543.171 161.069C542.223 161.543 541.302 162.095 540.355 162.727L536.118 166.963L524.827 175.437L514.485 182.962C512.616 184.225 510.879 185.62 509.3 187.199C507.721 188.778 506.168 190.33 504.589 191.909C503.01 193.777 501.22 195.435 499.194 196.856C497.168 198.277 495.194 199.909 493.325 201.803C491.457 203.672 489.483 205.329 487.456 206.75C485.43 208.171 483.614 209.803 482.061 211.697L478.298 214.987C477.35 215.934 475.955 217.329 474.061 219.223C472.192 221.092 471.56 221.723 472.192 221.092L452.454 239.433L447.743 244.143L443.032 248.379L438.795 252.142L410.109 283.64L394.107 301.508L390.344 306.218L382.817 314.691L378.58 319.875C373.869 324.585 369.632 329.743 365.895 335.4L361.658 339.637L352.71 351.399L349.42 357.031L347.999 358.899L342.814 365.004L341.867 366.425C341.867 366.74 341.63 367.372 341.156 368.293C340.683 369.24 340.446 369.872 340.446 370.161L336.209 377.687L329.155 387.081C328.84 387.397 328.682 387.871 328.682 388.502V389.45L326.813 393.213C326.497 393.213 326.181 393.37 325.866 393.686C325.234 394.318 324.76 394.949 324.444 395.555L323.497 396.502C322.865 397.133 322.392 397.449 322.076 397.449C320.207 397.449 319.102 396.818 318.786 395.581C318.155 394.318 317.681 393.239 317.365 392.292C317.049 391.344 317.049 389.792 317.365 387.581C317.365 386.318 317.997 385.239 319.234 384.292L322.997 377.713L322.523 378.187L326.76 370.188C327.708 368.609 328.497 367.214 329.103 365.951C329.734 364.688 330.971 362.82 332.866 360.32C335.051 358.136 336.472 356.399 337.103 355.136L338.972 352.32C339.604 351.689 340.156 350.82 340.63 349.742C341.104 348.636 341.656 347.794 342.288 347.163L346.051 341.058L345.104 341.531C346.051 339.953 347.367 337.69 349.104 334.716C350.841 331.743 352.947 328.848 355.447 326.006L367.211 310.007L380.843 288.851H379.896L386.475 279.456L394.476 269.115H394.002C396.187 265.668 398.397 262.457 400.582 259.484C402.766 256.51 405.135 253.458 407.635 250.327L421.741 231.038L428.32 221.171L443.848 196.725C445.427 195.146 446.743 193.514 447.848 191.778C448.954 190.041 450.111 188.409 451.375 186.831L456.559 178.831C457.507 176.963 458.744 174.91 460.323 172.726C461.902 170.542 463.139 168.647 464.086 167.095L472.56 152.043C473.508 150.175 474.587 148.28 475.85 146.412C477.113 144.544 478.035 142.649 478.666 140.781C478.666 140.465 478.903 139.991 479.377 139.36C479.85 138.728 480.087 138.255 480.087 137.939C481.035 136.36 482.114 134.334 483.377 131.834C484.64 129.334 485.561 127.282 486.193 125.729C486.193 125.413 486.43 124.94 486.904 124.308C487.377 123.677 487.614 123.203 487.614 122.887L491.378 114.414C491.378 113.782 491.457 113.388 491.615 113.23C491.772 113.072 491.851 112.835 491.851 112.519C492.483 110.651 493.115 108.993 493.72 107.572C494.352 106.151 494.825 104.836 495.141 103.573C495.141 103.257 495.22 102.862 495.378 102.388C495.536 101.915 495.615 101.362 495.615 100.731L497.036 95.0994V89.9155C496.404 89.5997 496.089 88.8103 496.089 87.5735C496.089 86.942 496.246 86.7052 496.562 86.863C496.878 87.0209 496.72 86.7841 496.089 86.1526C495.773 86.1526 495.22 85.9947 494.43 85.6789C493.641 85.3632 493.088 84.8895 492.772 84.2579H487.588C485.719 85.2053 483.193 85.6789 480.061 85.6789C479.429 85.6789 478.956 85.7579 478.64 85.9157C478.324 86.0736 478.008 86.1526 477.692 86.1526L466.876 89.4418C462.481 91.0207 458.007 92.8101 453.48 94.8363C448.927 96.8624 444.322 99.1518 439.611 101.652L432.084 105.415H433.031L415.635 115.756C406.845 121.098 398.002 126.808 389.054 132.913C380.106 139.018 372.843 144.438 367.184 149.122L362 153.359L355.42 158.99L343.656 183.91C342.709 185.489 341.788 187.199 340.84 189.094C339.893 190.962 338.656 193.172 337.077 195.672L338.024 194.725L335.208 198.488C334.577 199.751 334.261 200.356 334.261 200.356C333.314 201.303 332.392 202.777 331.445 204.829C330.498 206.856 329.576 208.987 328.629 211.171L322.523 220.092V219.618L313.575 235.143C313.575 235.775 313.496 236.249 313.338 236.564C313.181 236.88 313.102 237.196 313.102 237.512C312.154 238.459 311.68 239.09 311.68 239.38C310.417 240.643 309.575 241.564 309.101 242.196C308.628 242.827 308.075 243.617 307.443 244.538L305.575 246.879C304.943 247.827 304.311 248.985 303.706 250.406C303.075 251.827 302.443 252.826 301.838 253.458H302.311L291.495 269.904C288.995 272.088 287.1 274.772 285.863 277.904L283.047 280.719C282.731 281.035 282.573 281.667 282.573 282.588L278.336 286.824L265.651 305.639L259.071 315.507L256.729 318.322C254.229 320.507 252.334 323.033 251.097 325.848C249.229 328.032 247.255 330.085 245.228 331.953C243.202 333.821 241.386 335.874 239.833 338.058L240.307 337.584L231.833 348.873L232.306 348.4C231.99 349.031 231.438 349.742 230.648 350.505C229.859 351.294 229.148 352.005 228.543 352.61L211.147 372.345L204.567 379.871C202.699 382.371 200.962 383.792 199.383 384.108L183.855 400.107L178.223 404.817L175.407 406.685L168.354 412.317H164.591L162.249 412.79C161.933 412.79 161.538 412.869 161.064 413.027C160.591 413.185 159.88 413.264 158.959 413.264L156.143 410.448C155.195 409.501 154.722 408.422 154.722 407.159C154.722 406.527 154.643 406.133 154.485 405.975C154.327 405.817 154.248 405.422 154.248 404.791V403.133C154.248 402.344 154.406 401.633 154.722 401.028C154.722 399.765 154.801 398.37 154.959 396.791C155.116 395.212 155.511 393.976 156.143 393.028L158.011 386.923L160.354 379.871L164.117 370.477L172.118 352.136L188.119 324.401L192.83 318.296L191.882 318.77C192.514 318.138 193.303 317.112 194.225 315.717C195.172 314.296 196.251 312.981 197.514 311.718C197.514 311.086 197.672 310.612 197.988 310.297C197.988 309.981 198.146 309.823 198.462 309.823C198.778 309.191 198.935 308.718 198.935 308.402L210.226 292.403L214.937 286.298L222.937 275.009C222.937 274.378 223.095 273.904 223.411 273.588C223.727 273.273 224.042 273.115 224.358 273.115V271.694L241.754 252.405L243.623 250.063L251.623 240.196L255.387 236.906C261.019 230.644 266.598 224.67 272.072 219.039C277.546 213.408 283.442 207.435 289.705 201.172C290.021 200.54 290.495 199.751 291.126 198.83C291.758 197.883 292.39 197.093 292.995 196.488H293.942L295.811 194.146L306.154 185.225L316.97 176.752C319.47 173.621 322.444 170.568 325.918 167.595C329.366 164.621 332.814 161.727 336.261 158.885L344.735 151.359V150.412C344.735 149.464 345.209 148.543 346.157 147.596C347.104 145.728 348.104 143.202 349.209 140.07C350.315 136.939 351.157 134.597 351.789 133.018C351.789 132.702 351.868 132.229 352.025 131.597C352.183 130.966 352.262 130.492 352.262 130.176C354.763 124.861 356.894 119.44 358.605 113.967C360.342 108.493 361.974 103.073 363.553 97.7571C364.5 94.31 365.211 91.0996 365.658 88.1261C366.132 85.1526 366.684 81.9423 367.316 78.4951C367.632 75.3638 368.027 72.4692 368.5 69.7852C368.974 67.1274 369.211 64.5223 369.211 62.0225C369.527 60.4436 369.685 59.049 369.685 57.7859V54.023C369.685 51.8389 369.527 50.1022 369.211 48.8391C369.211 46.9708 369.053 45.234 368.737 43.6552C368.421 42.0763 368.106 40.5238 367.79 38.945C367.474 37.3661 367.237 36.1293 367.079 35.182C366.921 34.2347 366.526 33.4453 365.895 32.8401L362.605 28.1298C361.342 27.1825 360.184 26.2615 359.079 25.3142C357.973 24.3669 356.499 23.4459 354.605 22.4986L350.367 20.1566L346.13 17.8147C341.419 16.2358 335.945 15.4727 329.682 15.4727C329.366 15.4727 329.05 15.3148 328.734 14.9991C328.418 14.6833 327.945 14.5254 327.313 14.5254C325.445 14.5254 324.023 14.8412 323.076 15.4727C322.444 15.4727 321.892 15.5517 321.418 15.7096C320.944 15.8674 320.234 15.9464 319.313 15.9464C316.812 16.2622 314.365 16.7358 312.023 17.3673C309.68 17.9989 307.075 18.6304 304.259 19.2357C299.548 20.183 294.863 21.5776 290.153 23.4722L283.099 25.3405L278.862 26.2878H279.81C261.94 32.5506 243.439 40.5501 224.332 50.2601C216.489 54.6545 208.568 59.3384 200.593 64.3644C192.593 69.3904 183.75 75.1796 174.013 81.7581C165.538 87.3893 157.327 93.0469 149.327 98.6781C141.326 104.309 133.562 110.283 126.062 116.545C118.851 123.124 111.166 130.097 103.007 137.465C94.8489 144.833 87.6379 152.122 81.3743 159.332C76.0318 164.963 70.3998 171.174 64.452 177.91C58.5042 184.646 53.3196 191.146 48.9246 197.435L45.6349 202.145L37.1606 214.381C30.8969 223.17 26.0282 231.775 22.5806 240.248C17.5539 249.958 13.6325 259.852 10.8165 269.878C10.8165 270.825 10.6586 271.904 10.3428 273.167C10.027 274.43 9.86911 275.351 9.86911 275.983C9.86911 276.93 9.63225 278.088 9.15853 279.509C8.68481 280.93 8.44795 282.246 8.44795 283.509V293.377C9.07958 294.324 9.39539 295.876 9.39539 298.087C9.39539 298.718 9.47434 299.429 9.63225 300.192C9.79016 300.981 9.86911 301.692 9.86911 302.297L10.8165 305.586V304.639L12.6851 308.402C13.3167 310.902 15.0274 313.27 17.8697 315.454C18.8171 317.033 20.3699 318.349 22.5806 319.454C24.7649 320.559 26.8177 321.401 28.6863 322.033C29.9495 322.664 31.4233 323.059 33.1603 323.217C34.8972 323.375 36.0552 323.454 36.6868 323.454C40.1345 323.454 43.5031 323.059 46.7928 322.27C50.0826 321.48 53.1354 320.77 55.9514 320.164C59.7148 318.586 63.873 316.717 68.426 314.533C72.9789 312.349 77.1371 310.139 80.9006 307.955V308.428C88.7432 303.087 96.5859 297.14 104.402 290.561C111.613 284.298 118.666 277.799 125.562 271.036C132.457 264.299 139.036 257.484 145.3 250.59C150.642 245.564 155.564 240.327 160.117 234.828C164.67 229.354 169.117 223.46 173.513 217.197C175.092 215.618 176.723 213.513 178.46 210.855C180.197 208.198 182.461 204.356 185.277 199.33V199.803L189.514 192.278L195.146 181.936C195.461 180.989 195.935 180.068 196.567 179.121C197.198 178.173 197.514 176.936 197.514 175.358L201.278 167.358L202.699 157.49V154.675C202.699 154.043 202.541 153.569 202.225 153.254C201.909 152.938 201.751 152.464 201.751 151.833V149.964L200.804 148.096V147.622H200.33C199.699 147.622 199.225 147.465 198.909 147.149C197.962 147.149 197.488 146.833 197.488 146.201C197.172 146.201 196.777 146.123 196.304 145.965C195.83 145.807 195.119 145.728 194.198 145.728C193.882 145.728 193.488 145.649 193.014 145.491C192.54 145.333 191.514 145.254 189.961 145.254C189.014 145.254 188.224 145.412 187.619 145.728C186.04 145.728 184.803 145.886 183.855 146.201C181.039 147.78 178.144 149.254 175.144 150.675C172.17 152.096 169.749 153.727 167.854 155.622L164.565 159.385C163.933 160.016 163.38 160.569 162.906 161.043C162.433 161.516 162.038 162.069 161.722 162.7C161.722 164.279 160.143 165.042 157.011 165.042C155.748 163.779 155.143 163.016 155.143 162.7C155.143 162.385 154.985 161.911 154.669 161.28V154.227C154.669 153.596 154.827 153.122 155.143 152.806L162.67 143.886C163.933 142.623 165.407 141.386 167.144 140.123C168.881 138.86 170.039 137.939 170.67 137.307L176.302 135.439C177.565 134.807 178.566 134.334 179.355 134.018C180.145 133.702 181.618 133.229 183.829 132.597H183.355C184.619 132.281 185.856 132.044 187.119 131.887C188.382 131.729 190.251 131.65 192.751 131.65C193.067 131.65 193.382 131.729 193.698 131.887C194.014 132.044 194.488 132.123 195.119 132.123L198.883 132.597C199.199 132.597 199.435 132.676 199.593 132.834C199.751 132.992 200.146 133.071 200.778 133.071H201.725C202.041 133.071 202.515 133.386 203.146 134.018C204.725 134.018 205.804 135.281 206.436 137.781C206.436 136.834 206.752 137.623 207.383 140.123L209.252 143.412C210.515 148.122 210.989 152.201 210.673 155.648C210.673 158.148 210.594 160.28 210.436 161.99C210.278 163.727 209.884 165.674 209.252 167.858C208.936 170.042 208.541 172.174 208.068 174.2C207.594 176.226 207.041 177.884 206.41 179.147C206.094 180.726 205.699 182.199 205.225 183.62C204.752 185.041 204.199 186.199 203.567 187.146L201.699 190.436L190.882 211.592C189.619 213.776 187.987 216.46 185.934 219.592C183.908 222.723 181.145 226.644 177.697 231.354L162.17 250.169C156.222 257.063 149.563 264.194 142.194 271.562C134.826 278.93 127.378 286.061 119.851 292.956L96.7964 312.691C88.3222 318.638 79.7163 324.138 70.9262 329.138H71.3999C69.5313 329.769 67.1627 330.559 64.3467 331.48C61.5307 332.427 58.8727 333.216 56.3462 333.821C52.2669 335.69 47.714 336.953 42.7136 337.584H34.2393C31.4233 337.584 28.6073 336.953 25.765 335.716C25.1334 335.4 24.2649 335.085 23.1859 334.769C22.0805 334.453 21.2384 333.979 20.6067 333.348C19.9751 332.716 19.1066 332.164 18.0276 331.69C16.9223 331.216 16.0801 330.664 15.4485 330.032C11.3692 327.532 8.23741 323.769 6.05304 318.743L3.23705 312.639C3.23705 312.007 2.92124 311.218 2.28961 310.297C1.65799 307.797 1.34218 305.902 1.34218 304.665C0.710551 302.481 0.315786 299.955 0.15788 297.14C-2.64198e-05 294.324 -0.0789795 291.666 -0.0789795 289.14C-0.0789795 285.693 -2.64198e-05 282.719 0.15788 280.22C0.315786 277.72 0.552645 275.036 0.868458 272.22L4.15817 257.642L6.97416 250.59L9.31644 243.064L12.6061 236.485C14.1852 233.038 15.738 229.67 17.317 226.381C18.8961 223.091 20.7646 219.881 22.949 216.75C25.1334 212.355 27.6599 207.882 30.4759 203.356C33.2919 198.803 36.4237 194.356 39.8713 189.962L47.8719 180.094C49.7404 178.226 51.4774 176.094 53.0564 173.752C54.6355 171.41 56.662 169.121 59.1622 166.937C65.4258 159.411 72.1631 151.727 79.3741 143.886C86.5852 136.044 93.7962 128.992 101.007 122.729C108.218 116.466 115.982 109.888 124.298 102.994C132.615 96.0993 140.668 89.6787 148.511 83.7054C157.59 76.4953 166.301 70.1536 174.618 64.6539C182.934 59.1806 190.83 54.0756 198.356 49.3654V50.3127C201.804 47.4971 204.699 45.4446 207.068 44.2078C209.41 42.9447 211.857 41.5501 214.358 39.9712L224.7 33.8663L251.966 22.1039C253.834 21.1566 255.887 20.3672 258.071 19.7619C260.256 19.1304 262.151 18.4989 263.703 17.8936C266.203 17.2621 269.098 16.3148 272.414 15.078C275.704 13.8149 278.283 12.4203 280.178 10.8414C282.363 10.2099 285.573 9.26259 289.81 8.02582C294.048 6.76274 298.601 5.52597 303.443 4.26289C308.312 2.99981 313.154 1.99988 318.023 1.21045C322.892 0.421027 327.024 0.0263142 330.498 0.0263142L330.603 0Z" fill="white"/>
<path d="M601.465 298.113C600.833 299.376 600.833 300.06 601.465 300.218C602.096 300.376 603.123 300.139 604.518 299.508C605.939 298.876 607.492 298.087 609.228 297.166C610.965 296.219 612.281 295.455 613.229 294.824C617.94 292.008 621.94 289.429 625.23 287.061C628.519 284.719 631.888 281.798 635.336 278.351L642.862 270.825C643.494 270.194 643.81 269.878 643.81 269.878C644.442 268.615 645.231 267.536 646.152 266.589C647.1 265.641 647.889 264.563 648.494 263.299L653.679 256.721C653.363 256.405 653.284 256.01 653.442 255.537C653.6 255.063 653.679 254.511 653.679 253.879L651.81 252.011H648.521C646.652 252.011 644.915 252.642 643.336 253.879L639.573 255.747C638.941 256.063 638.152 256.537 637.23 257.168C635.362 258.431 634.099 259.194 633.467 259.51C633.467 259.51 633.309 259.826 632.993 260.458L626.888 265.641C626.256 266.273 625.388 267.141 624.308 268.22C623.203 269.325 622.361 270.01 621.729 270.325C621.098 272.194 619.861 273.457 617.966 274.088L617.018 276.43L609.018 285.824L605.254 291.456L601.965 296.166L601.491 298.034L601.465 298.113ZM651.31 242.169C652.258 242.169 653.179 242.406 654.126 242.88C655.074 243.353 655.995 243.906 656.942 244.538C658.206 244.538 659.127 245.169 659.758 246.406C660.706 247.037 661.18 247.669 661.18 248.274C661.18 249.221 661.416 249.853 661.89 250.142C662.364 250.458 662.601 251.09 662.601 252.011V251.537C663.864 253.721 664.338 255.695 664.022 257.405C663.706 259.142 663.232 260.773 662.601 262.352L659.311 266.589L655.074 272.22C654.758 272.536 654.284 273.009 653.653 273.641C653.021 274.272 652.547 274.904 652.232 275.509C651.916 275.825 651.758 276.141 651.758 276.457C651.126 277.088 650.81 277.404 650.81 277.404C650.81 277.404 650.495 277.72 649.863 278.351C648.6 280.22 647.363 282.825 646.1 286.114C644.836 289.403 643.915 291.982 643.284 293.877L641.415 299.981C641.415 300.613 641.336 301.008 641.178 301.166C641.02 301.323 640.941 301.718 640.941 302.35C640.941 302.981 641.099 303.771 641.415 304.692C641.415 305.323 641.494 305.955 641.652 306.56C641.81 307.192 641.889 307.823 641.889 308.428L643.31 311.244V310.77C643.31 310.139 643.784 310.297 644.731 311.244H644.257L647.547 313.586H649.416C649.731 313.586 650.047 313.744 650.363 314.06C650.679 314.375 650.995 314.533 651.31 314.533C651.626 313.902 651.942 313.744 652.258 314.06C652.574 314.375 653.047 314.533 653.679 314.533C654.311 313.902 655.1 313.586 656.021 313.586H658.364C658.995 313.586 659.39 313.428 659.548 313.112C659.706 312.796 660.101 312.639 660.732 312.639L664.496 311.691L667.312 310.744L671.549 308.402L680.497 302.297L685.208 299.481C686.787 297.903 688.26 296.429 689.682 295.008C691.103 293.587 692.577 292.429 694.156 291.482L698.866 287.245L715.315 271.72C715.947 270.773 716.657 270.22 717.421 270.062C718.21 269.904 719.368 269.51 720.947 268.878L723.289 270.746C724.553 272.325 724.868 273.404 724.237 274.036C723.605 274.667 722.816 275.772 721.894 277.325C716.552 282.035 712.973 285.64 711.078 288.14C709.209 290.64 707.157 293.008 704.972 295.192C704.972 295.192 704.656 295.508 704.025 296.14L703.077 297.087L692.261 305.56L688.971 308.849C685.523 311.033 681.997 313.402 678.391 315.902C674.786 318.401 671.259 320.138 667.812 321.085C667.496 321.085 667.18 321.243 666.864 321.559C666.548 321.875 666.075 322.033 665.443 322.033C663.575 322.664 661.206 322.98 658.39 322.98C657.442 323.296 655.89 323.454 653.679 323.454C653.679 324.085 653.047 324.401 651.81 324.401C650.863 324.401 650.074 324.243 649.468 323.927C648.837 323.612 647.284 323.296 644.757 322.98L645.231 323.454C644.915 323.454 644.599 323.296 644.284 322.98H643.81L640.52 321.112C638.652 319.849 637.073 318.217 635.809 316.165C634.546 314.138 633.783 312.165 633.467 310.297C633.151 307.797 632.835 305.35 632.52 303.008C632.204 300.666 632.678 297.745 633.941 294.298V293.824L631.125 295.692L627.361 298.982C626.098 300.56 624.466 301.797 622.414 302.744C620.387 303.692 618.571 304.613 617.018 305.56L616.071 306.034C613.571 307.613 611.439 308.691 609.728 309.323C607.992 309.955 606.518 310.586 605.254 311.191C604.939 311.191 604.623 311.27 604.307 311.428C603.991 311.586 603.675 311.665 603.36 311.665C602.728 311.981 602.175 311.981 601.702 311.665C601.228 311.349 600.517 311.191 599.596 311.191L597.254 311.665C596.306 311.665 595.227 311.191 593.964 310.244C592.701 309.928 592.017 309.77 591.859 309.77C591.701 309.77 591.464 308.981 591.148 307.428C591.148 306.797 590.911 306.402 590.438 306.244C589.964 306.086 589.727 305.85 589.727 305.534L590.674 298.955L592.543 295.192L591.596 295.666L593.017 292.377L595.359 288.14L599.122 282.509C599.438 282.193 599.596 281.719 599.596 281.088L601.938 277.799L612.755 264.168L611.808 264.642C612.439 264.01 613.071 263.457 613.676 262.984C614.308 262.51 614.939 261.957 615.545 261.326L621.65 256.142L625.414 252.853L624.94 253.8L633.414 247.695C634.993 246.432 637.731 245.195 641.652 243.932C645.573 242.669 648.784 242.064 651.284 242.064L651.31 242.169Z" fill="white"/>
<path d="M731.263 251.09C730 252.353 728.369 254.379 726.316 257.195C724.289 260.01 722.947 262.063 722.315 263.299C720.447 267.062 719.5 269.404 719.5 270.352C719.5 270.667 720.289 269.562 721.842 267.062C723.421 264.563 724.5 262.668 725.131 261.431C725.131 261.115 725.289 260.8 725.605 260.484L727.026 259.063L731.263 251.063V251.09ZM740.659 240.748C740.975 241.38 741.369 241.932 741.843 242.406C742.317 242.88 742.554 243.906 742.554 245.458C742.554 247.327 742.001 249.064 740.896 250.642C739.79 252.221 738.79 253.774 737.843 255.353L734.079 261.457L731.737 264.273L732.685 263.799L729.869 268.036L727.053 270.378L733.632 268.036L742.58 264.273L747.291 262.852C747.607 262.852 747.844 262.773 748.002 262.615C748.159 262.457 748.396 262.378 748.712 262.378C749.344 261.747 750.133 261.51 751.054 261.668C752.002 261.826 753.239 261.905 754.818 261.905C755.765 261.905 756.476 262.457 756.923 263.563C757.397 264.668 757.95 265.51 758.581 266.141V268.01C758.897 269.273 758.739 270.51 758.108 271.773C757.476 273.036 757.16 274.43 757.16 276.009L756.213 276.957L753.87 280.719L750.581 284.482L743.527 292.008L730.842 308.007C730.211 308.639 729.421 309.744 728.5 311.297C727.553 312.875 726.763 314.112 726.158 315.059L724.289 321.164V322.112C724.289 322.427 724.447 322.743 724.763 323.059C725.079 323.375 725.395 323.533 725.71 323.533L729.474 324.006H731.132C731.606 324.006 732.632 323.69 734.185 323.059C735.132 322.427 735.685 321.954 735.843 321.638C736.001 321.322 737.027 321.164 738.896 321.164C739.211 320.849 739.843 320.375 740.764 319.743C741.712 319.112 742.501 318.796 743.106 318.796L746.87 317.375C747.817 316.428 748.975 315.507 750.396 314.559C751.818 313.612 752.186 313.454 751.581 314.086L759.108 309.376C762.555 307.507 765.924 305.297 769.214 302.797C772.503 300.297 775.872 297.771 779.32 295.271L793.426 283.509C795.005 282.246 796.163 281.325 796.952 280.693C797.742 280.062 798.453 279.43 799.058 278.825L800.005 277.878L802.821 275.536C803.453 274.588 804.242 273.667 805.164 272.72C806.111 271.773 807.348 271.299 808.927 271.299C812.375 271.299 813.401 272.72 811.98 275.536C810.559 278.351 809.085 280.719 807.506 282.588L803.742 285.403C803.111 285.719 802.558 286.193 802.084 286.824C801.611 287.456 801.216 288.087 800.9 288.693L798.084 290.561C796.821 291.824 795.584 293.14 794.321 294.561C793.057 295.982 791.663 296.982 790.084 297.613C788.504 298.245 787.425 298.955 786.794 299.718C786.162 300.508 785.689 301.06 785.373 301.376L779.741 306.086C773.161 311.428 767.424 315.323 762.582 317.849C757.739 320.375 753.713 322.559 750.581 324.427C748.712 325.69 746.817 326.927 744.949 328.19C743.08 329.453 741.343 330.216 739.764 330.532L733.185 332.874L726.132 333.821L724.263 332.874C723 332.874 722.237 332.716 721.921 332.4C720.973 332.4 719.894 331.769 718.631 330.532C717.684 329.901 716.894 329.348 716.289 328.874C715.657 328.401 715.341 327.532 715.341 326.296L714.394 323.48L716.262 315.48C716.262 314.533 716.736 313.612 717.684 312.665C719.263 309.218 721.131 306.086 723.316 303.271C723.947 302.323 724.737 301.244 725.658 299.981C726.921 298.113 728.79 295.745 731.29 292.929L735.053 288.219C737.238 286.64 738.659 285.088 739.29 283.509L741.633 280.693L741.159 281.64L744.449 276.457L741.159 277.878C739.896 278.509 738.58 279.062 737.159 279.535C735.738 280.009 734.264 280.404 732.685 280.719L727.5 282.14C726.553 282.456 725.631 282.772 724.684 283.088C723.737 283.403 722.658 283.561 721.394 283.561L713.867 282.614C711.367 280.746 710.104 278.377 710.104 275.562C709.788 275.246 709.63 274.93 709.63 274.615V273.667C710.578 268.325 711.973 263.957 713.867 260.51L719.973 251.563L731.263 240.748C731.579 240.748 733 239.801 735.501 237.933H737.843L740.659 240.748Z" fill="white"/>
<path d="M915.593 164.095V163.621L916.066 163.148L915.593 164.095ZM869.51 182.436L872.8 181.015L886.433 178.199C888.012 177.884 889.485 177.568 890.907 177.252C892.328 176.936 893.802 176.463 895.381 175.831L896.328 174.884L901.96 166.411L909.013 155.596V156.069L911.829 151.833C911.829 151.517 911.987 151.201 912.303 150.885L913.25 149.938C913.25 148.991 913.724 147.754 914.672 146.175L917.014 142.412C917.645 140.228 917.567 138.728 916.777 137.939C915.987 137.149 913.724 137.86 909.961 140.044C906.197 142.228 902.75 145.228 899.618 148.964L897.749 150.385L895.881 152.727L894.012 154.596C893.381 155.227 892.67 155.938 891.907 156.701C891.117 157.49 890.88 157.569 891.196 156.938C890.249 158.201 889.17 159.122 887.906 159.753L882.722 164.937L880.38 168.7L875.195 174.331L871.432 179.041L869.563 182.331L869.51 182.436ZM819.191 265.194C819.823 264.247 820.691 263.089 821.77 261.668C822.875 260.247 823.718 259.247 824.349 258.616L836.113 245.932L841.298 240.301C842.245 239.354 843.114 238.511 843.877 237.722C844.666 236.933 845.377 235.775 845.982 234.196L857.746 221.513L868.563 209.276L874.195 201.751L880.774 194.225C881.406 193.277 882.117 192.278 882.88 191.172C883.669 190.067 884.38 189.067 884.985 188.12C880.274 189.067 875.59 190.304 870.879 191.883L861.01 193.751V194.225L853.009 207.382L845.956 217.25C843.772 220.381 841.561 223.907 839.377 227.828C837.192 231.749 835.139 235.906 833.271 240.301L831.402 243.116C828.586 247.827 826.06 252.195 823.875 256.274C822.928 256.905 822.454 257.537 822.454 258.142L819.165 265.194H819.191ZM1061.84 154.701H1067.95C1069.81 154.701 1071.87 154.859 1074.05 155.175C1076.24 155.49 1078.29 155.648 1080.16 155.648H1086.26C1086.89 155.648 1087.84 156.201 1089.08 157.306C1090.34 158.411 1090.95 159.253 1090.95 159.885V162.7C1090.32 163.648 1089.29 164.648 1087.89 165.753C1086.47 166.858 1085.16 167.411 1083.89 167.411C1080.76 167.095 1077.71 166.858 1074.74 166.7C1071.76 166.542 1068.71 166.463 1065.58 166.463C1060.87 166.148 1056.95 165.99 1053.81 165.99H1033.13C1029.05 165.99 1023.73 166.148 1017.13 166.463C1011.78 167.095 1006.7 167.647 1001.84 168.121C996.967 168.595 992.203 168.989 987.493 169.305C986.861 169.305 986.071 169.463 985.15 169.779C983.571 169.779 982.334 169.937 981.387 170.253C980.755 170.253 980.124 170.332 979.518 170.489C978.887 170.647 978.097 170.726 977.176 170.726C975.307 171.042 973.255 171.358 971.07 171.674C968.886 171.989 966.991 172.147 965.438 172.147C963.859 172.779 961.833 173.173 959.333 173.331C956.832 173.489 954.306 173.884 951.806 174.515C950.858 174.831 949.99 174.91 949.227 174.752C948.437 174.594 946.805 174.831 944.279 175.463L930.646 178.752C930.015 178.752 929.462 178.831 928.988 178.989C928.515 179.147 927.962 179.226 927.33 179.226C926.699 179.857 925.462 180.173 923.567 180.173C922.935 180.173 922.462 180.252 922.146 180.41C921.83 180.568 921.356 180.647 920.725 180.647L899.565 185.357L894.381 190.988L882.617 206.04C881.038 208.855 879.248 211.434 877.221 213.802C875.195 216.144 873.221 218.592 871.353 221.092L858.667 235.196C856.167 238.643 853.641 241.617 851.141 244.143L844.088 252.142L838.903 258.721L833.271 264.352C829.823 266.852 826.849 269.457 824.323 272.115C821.823 274.772 819.296 277.378 816.796 279.877L812.085 286.456L808.322 293.034C807.69 293.666 807.374 293.982 807.374 293.982C807.059 294.298 806.901 294.613 806.901 294.929C806.901 295.876 806.743 296.508 806.427 296.797C805.479 298.376 805.006 299.455 805.006 300.087C804.69 300.718 804.532 301.955 804.532 303.85C804.532 304.165 804.453 304.56 804.295 305.034C804.137 305.507 804.058 306.06 804.058 306.691C804.058 307.007 803.9 307.402 803.585 307.876C803.269 308.349 803.111 309.06 803.111 309.981C803.111 310.297 803.269 310.691 803.585 311.165C803.9 311.639 804.058 312.033 804.058 312.349L803.585 312.823H804.058C804.058 313.454 804.137 313.928 804.295 314.244C804.453 314.559 804.69 315.033 805.006 315.665C805.322 317.533 806.743 318.48 809.243 318.48C810.19 319.743 812.691 320.349 816.77 320.349C818.638 320.664 821.165 320.033 824.297 318.48L829.481 316.612C830.429 315.98 831.823 315.349 833.718 314.744C835.587 314.112 836.85 313.796 837.482 313.796C837.798 313.796 838.113 313.638 838.429 313.323C838.745 313.323 838.903 313.244 838.903 313.086C838.903 312.928 839.061 312.849 839.377 312.849L841.719 311.902H843.14L845.482 310.033L849.246 307.218C849.562 307.218 849.877 307.139 850.193 306.981C850.509 306.823 851.456 306.428 853.009 305.797L857.246 303.455H856.773L861.483 300.639L861.01 301.113L863.826 299.245C864.457 298.297 865.247 297.508 866.168 296.903C867.115 296.271 868.037 295.64 868.984 295.034C869.616 295.034 870.326 294.719 871.089 294.087C871.879 293.455 872.432 292.982 872.747 292.666L876.511 290.798L875.09 291.271C875.721 290.324 876.59 289.614 877.669 289.166C878.774 288.693 879.616 288.14 880.248 287.508C880.564 287.508 880.88 287.272 881.195 286.798C881.511 286.324 881.827 286.088 882.143 286.088C884.327 283.272 886.538 281.062 888.722 279.509L892.486 276.22V277.167C893.749 275.904 894.828 275.299 895.775 275.299C896.091 275.299 896.328 275.141 896.486 274.825C896.644 274.509 897.197 274.351 898.144 274.351C900.328 274.351 901.434 275.614 901.434 278.114L899.565 279.983C899.565 280.93 899.091 281.851 898.144 282.798L891.565 288.903L885.933 294.534L881.222 297.35L877.932 300.639C877.3 300.639 876.59 300.955 875.827 301.587C875.037 302.218 874.484 302.85 874.169 303.455L866.642 310.033V309.086C865.378 310.349 864.457 310.954 863.826 310.954L863.352 311.902C862.72 312.533 861.931 312.849 861.01 312.849C860.378 313.481 859.668 313.954 858.904 314.27C858.115 314.586 857.404 315.059 856.799 315.691C854.93 316.954 853.825 317.559 853.509 317.559C852.562 317.875 851.93 318.033 851.641 318.033L849.298 318.98H849.772L846.009 321.796C845.377 321.796 844.745 321.875 844.14 322.033C843.509 322.191 842.719 322.269 841.798 322.269C841.166 323.533 840.219 324.138 838.982 324.138C838.35 324.138 837.955 324.217 837.798 324.375C837.64 324.532 837.403 324.611 837.087 324.611C836.14 325.559 834.903 326.032 833.324 326.032L826.27 327.901L822.033 329.322C821.717 329.322 821.481 329.401 821.323 329.559C821.165 329.716 820.928 329.795 820.612 329.795C819.349 330.427 817.796 330.427 815.901 329.795C815.27 329.795 814.796 329.874 814.48 330.032C814.164 330.19 813.691 330.269 813.059 330.269L809.296 329.795C805.216 328.848 802.479 328.006 801.058 327.217C799.637 326.427 798.163 325.269 796.584 323.69C794.4 321.506 793.294 319.454 793.294 317.586V314.77C793.294 314.454 793.215 314.217 793.057 314.059C792.9 313.902 792.821 313.507 792.821 312.875V311.928C792.505 310.665 792.663 308.955 793.294 306.744V301.113L795.163 293.113L804.558 270.062L808.322 262.536L813.954 250.774L816.296 247.011C816.296 245.748 816.928 244.511 818.165 243.248L817.217 244.195L819.559 240.432C820.191 239.801 820.744 239.011 821.217 238.09C821.691 237.143 822.244 235.906 822.875 234.328L832.271 217.881C833.218 216.934 834.139 215.934 835.087 214.829C836.034 213.724 836.508 212.882 836.508 212.25C837.14 210.671 838.008 208.961 839.087 207.066C840.192 205.198 841.193 203.461 842.14 201.882C842.772 201.251 843.166 200.619 843.324 200.014C843.482 199.382 843.877 198.751 844.509 198.146H844.035L826.639 201.909C824.139 202.856 821.244 203.566 817.928 204.014C814.638 204.487 811.585 204.724 808.769 204.724C806.269 205.356 803.506 205.908 800.532 206.382C797.558 206.856 794.663 207.25 791.821 207.566H785.241C784.294 207.25 782.899 207.092 781.004 207.092C780.057 206.461 778.978 206.066 777.714 205.908C776.451 205.75 775.53 205.356 774.898 204.724C774.267 204.724 773.319 203.777 772.082 201.909L772.556 198.146C772.556 196.882 773.977 196.277 776.793 196.277H781.03C781.346 196.277 781.504 196.356 781.504 196.514C781.504 196.672 781.662 196.751 781.978 196.751H792.321L809.243 194.409C815.822 194.093 822.244 192.83 828.534 190.646L846.877 187.357L854.404 185.936C855.036 184.673 855.746 183.278 856.509 181.699C857.299 180.12 858.167 179.041 859.089 178.41L860.957 175.594L865.194 169.963L868.484 165.727V166.2C868.484 164.937 869.116 164.016 870.353 163.385C870.668 163.069 870.826 162.595 870.826 161.964L875.063 158.201L878.353 153.964L883.985 148.333C884.301 148.017 884.459 147.701 884.459 147.386L891.512 140.333L900.907 133.281L902.776 132.334C904.039 131.702 905.434 130.834 907.013 129.755C908.592 128.65 909.04 128.097 908.434 128.097L913.145 125.282L915.961 123.413C916.909 123.098 918.461 122.94 920.672 122.94C920.988 122.94 921.777 123.255 923.014 123.887C924.278 124.519 925.041 124.992 925.357 125.308L927.225 127.176C927.225 128.439 927.541 129.36 928.173 129.992V134.702C927.541 135.334 927.225 136.044 927.225 136.807V138.912C927.225 139.544 927.146 140.254 926.988 141.018C926.83 141.807 926.751 142.517 926.751 143.123L925.33 147.359C924.699 148.622 924.383 149.701 924.383 150.649L918.277 159.569C917.645 160.201 916.935 161.227 916.172 162.621C915.382 164.042 915.145 164.569 915.461 164.279L909.829 171.331L909.355 172.279L915.461 170.858C917.04 170.858 918.356 170.779 919.461 170.621C920.567 170.463 921.883 170.226 923.462 169.91L936.147 167.095L942.726 165.674L950.253 163.806C952.753 163.174 955.28 162.858 957.78 162.858C960.28 162.227 963.254 161.753 966.728 161.437C970.176 161.122 973.149 160.964 975.65 160.964C976.597 160.332 977.834 159.937 979.413 159.78C980.992 159.622 982.229 159.543 983.176 159.543C984.124 159.227 984.913 159.069 985.519 159.069L999.625 157.648L1014.21 155.78C1014.84 155.78 1015.31 155.701 1015.63 155.543C1015.94 155.385 1016.73 155.306 1017.97 155.306H1030.21C1033.02 155.306 1035.68 155.227 1038.21 155.069C1040.71 154.911 1043.68 154.832 1047.15 154.832H1061.73L1061.84 154.701Z" fill="white"/>
</g>
<defs>
<clipPath id="clip0_903_940">
<rect width="1091" height="426" fill="white"/>
</clipPath>
</defs>
</svg>
